<mxfile host="Electron" agent="Mozilla/5.0 (Windows NT 10.0; Win64; x64) AppleWebKit/537.36 (KHTML, like Gecko) draw.io/24.7.5 Chrome/126.0.6478.183 Electron/31.3.0 Safari/537.36" version="24.7.5">
  <diagram id="R2lEEEUBdFMjLlhIrx00" name="Page-1">
    <mxGraphModel dx="2601" dy="1897" grid="1" gridSize="10" guides="1" tooltips="1" connect="1" arrows="1" fold="1" page="1" pageScale="1" pageWidth="850" pageHeight="1100" math="0" shadow="0" extFonts="Permanent Marker^https://fonts.googleapis.com/css?family=Permanent+Marker">
      <root>
        <mxCell id="0" />
        <mxCell id="1" parent="0" />
        <mxCell id="o08p62BVp6ES0wWiFjN2-1" value="Student" style="whiteSpace=wrap;html=1;align=center;" parent="1" vertex="1">
          <mxGeometry x="230" y="210" width="140" height="60" as="geometry" />
        </mxCell>
        <mxCell id="o08p62BVp6ES0wWiFjN2-2" value="Advisor" style="whiteSpace=wrap;html=1;align=center;" parent="1" vertex="1">
          <mxGeometry x="1080" y="50" width="100" height="40" as="geometry" />
        </mxCell>
        <mxCell id="o08p62BVp6ES0wWiFjN2-3" value="Assigned to&amp;nbsp;" style="shape=rhombus;perimeter=rhombusPerimeter;whiteSpace=wrap;html=1;align=center;" parent="1" vertex="1">
          <mxGeometry x="635" y="190" width="100" height="70" as="geometry" />
        </mxCell>
        <mxCell id="o08p62BVp6ES0wWiFjN2-6" value="" style="endArrow=none;html=1;rounded=0;exitX=1;exitY=0.5;exitDx=0;exitDy=0;entryX=0;entryY=0.5;entryDx=0;entryDy=0;edgeStyle=orthogonalEdgeStyle;" parent="1" source="o08p62BVp6ES0wWiFjN2-3" target="o08p62BVp6ES0wWiFjN2-2" edge="1">
          <mxGeometry relative="1" as="geometry">
            <mxPoint x="590" y="332" as="sourcePoint" />
            <mxPoint x="610" y="272" as="targetPoint" />
          </mxGeometry>
        </mxCell>
        <mxCell id="IP0mqPOCSbXhTDtQ9ogp-232" value="1" style="edgeLabel;html=1;align=center;verticalAlign=middle;resizable=0;points=[];" parent="o08p62BVp6ES0wWiFjN2-6" vertex="1" connectable="0">
          <mxGeometry x="0.8827" relative="1" as="geometry">
            <mxPoint as="offset" />
          </mxGeometry>
        </mxCell>
        <mxCell id="o08p62BVp6ES0wWiFjN2-9" value="Lease" style="whiteSpace=wrap;html=1;align=center;" parent="1" vertex="1">
          <mxGeometry x="1110" y="413" width="100" height="40" as="geometry" />
        </mxCell>
        <mxCell id="o08p62BVp6ES0wWiFjN2-19" value="Course" style="whiteSpace=wrap;html=1;align=center;" parent="1" vertex="1">
          <mxGeometry x="-340" y="217.5" width="100" height="45" as="geometry" />
        </mxCell>
        <mxCell id="o08p62BVp6ES0wWiFjN2-35" value="NextOfKin" style="whiteSpace=wrap;html=1;align=center;" parent="1" vertex="1">
          <mxGeometry x="-320" y="538" width="100" height="40" as="geometry" />
        </mxCell>
        <mxCell id="o08p62BVp6ES0wWiFjN2-36" value="has" style="shape=rhombus;perimeter=rhombusPerimeter;whiteSpace=wrap;html=1;align=center;" parent="1" vertex="1">
          <mxGeometry x="-100" y="540" width="62.5" height="40" as="geometry" />
        </mxCell>
        <mxCell id="o08p62BVp6ES0wWiFjN2-37" value="" style="endArrow=none;html=1;rounded=0;exitX=1;exitY=0.5;exitDx=0;exitDy=0;edgeStyle=orthogonalEdgeStyle;entryX=0;entryY=0.75;entryDx=0;entryDy=0;" parent="1" source="o08p62BVp6ES0wWiFjN2-36" target="o08p62BVp6ES0wWiFjN2-1" edge="1">
          <mxGeometry relative="1" as="geometry">
            <mxPoint x="390" y="320" as="sourcePoint" />
            <mxPoint x="200" y="260" as="targetPoint" />
            <Array as="points">
              <mxPoint x="120" y="560" />
              <mxPoint x="120" y="255" />
            </Array>
          </mxGeometry>
        </mxCell>
        <mxCell id="IP0mqPOCSbXhTDtQ9ogp-228" value="1" style="edgeLabel;html=1;align=center;verticalAlign=middle;resizable=0;points=[];" parent="o08p62BVp6ES0wWiFjN2-37" vertex="1" connectable="0">
          <mxGeometry x="0.9278" y="-2" relative="1" as="geometry">
            <mxPoint x="1" as="offset" />
          </mxGeometry>
        </mxCell>
        <mxCell id="o08p62BVp6ES0wWiFjN2-38" value="" style="endArrow=none;html=1;rounded=0;exitX=1;exitY=0.5;exitDx=0;exitDy=0;entryX=0;entryY=0.5;entryDx=0;entryDy=0;" parent="1" source="o08p62BVp6ES0wWiFjN2-35" target="o08p62BVp6ES0wWiFjN2-36" edge="1">
          <mxGeometry relative="1" as="geometry">
            <mxPoint x="390" y="320" as="sourcePoint" />
            <mxPoint x="550" y="320" as="targetPoint" />
          </mxGeometry>
        </mxCell>
        <mxCell id="IP0mqPOCSbXhTDtQ9ogp-227" value="0 or 1" style="edgeLabel;html=1;align=center;verticalAlign=middle;resizable=0;points=[];" parent="o08p62BVp6ES0wWiFjN2-38" vertex="1" connectable="0">
          <mxGeometry x="-0.3443" y="-1" relative="1" as="geometry">
            <mxPoint x="1" as="offset" />
          </mxGeometry>
        </mxCell>
        <mxCell id="o08p62BVp6ES0wWiFjN2-42" value="Invoice" style="whiteSpace=wrap;html=1;align=center;" parent="1" vertex="1">
          <mxGeometry x="-152.5" y="820" width="100" height="40" as="geometry" />
        </mxCell>
        <mxCell id="o08p62BVp6ES0wWiFjN2-43" value="sent to" style="shape=rhombus;perimeter=rhombusPerimeter;whiteSpace=wrap;html=1;align=center;" parent="1" vertex="1">
          <mxGeometry x="190" y="630" width="55" height="50" as="geometry" />
        </mxCell>
        <mxCell id="o08p62BVp6ES0wWiFjN2-44" value="" style="endArrow=none;html=1;rounded=0;exitX=0.25;exitY=1;exitDx=0;exitDy=0;entryX=1;entryY=0.5;entryDx=0;entryDy=0;edgeStyle=orthogonalEdgeStyle;" parent="1" source="o08p62BVp6ES0wWiFjN2-1" target="o08p62BVp6ES0wWiFjN2-43" edge="1">
          <mxGeometry relative="1" as="geometry">
            <mxPoint x="480" y="260" as="sourcePoint" />
            <mxPoint x="640" y="260" as="targetPoint" />
          </mxGeometry>
        </mxCell>
        <mxCell id="IP0mqPOCSbXhTDtQ9ogp-230" value="1" style="edgeLabel;html=1;align=center;verticalAlign=middle;resizable=0;points=[];" parent="o08p62BVp6ES0wWiFjN2-44" vertex="1" connectable="0">
          <mxGeometry x="-0.9259" y="1" relative="1" as="geometry">
            <mxPoint as="offset" />
          </mxGeometry>
        </mxCell>
        <mxCell id="o08p62BVp6ES0wWiFjN2-45" value="" style="endArrow=none;html=1;rounded=0;exitX=1;exitY=0.5;exitDx=0;exitDy=0;entryX=0;entryY=0.5;entryDx=0;entryDy=0;edgeStyle=orthogonalEdgeStyle;" parent="1" source="o08p62BVp6ES0wWiFjN2-42" target="o08p62BVp6ES0wWiFjN2-43" edge="1">
          <mxGeometry relative="1" as="geometry">
            <mxPoint x="480" y="260" as="sourcePoint" />
            <mxPoint x="240" y="400" as="targetPoint" />
            <Array as="points">
              <mxPoint x="130" y="840" />
              <mxPoint x="130" y="655" />
            </Array>
          </mxGeometry>
        </mxCell>
        <mxCell id="IP0mqPOCSbXhTDtQ9ogp-231" value="1" style="edgeLabel;html=1;align=center;verticalAlign=middle;resizable=0;points=[];" parent="o08p62BVp6ES0wWiFjN2-45" vertex="1" connectable="0">
          <mxGeometry x="-0.9205" y="2" relative="1" as="geometry">
            <mxPoint x="-1" as="offset" />
          </mxGeometry>
        </mxCell>
        <mxCell id="o08p62BVp6ES0wWiFjN2-49" value="Residence Staff" style="whiteSpace=wrap;html=1;align=center;" parent="1" vertex="1">
          <mxGeometry x="400" y="870" width="100" height="40" as="geometry" />
        </mxCell>
        <mxCell id="o08p62BVp6ES0wWiFjN2-50" value="Student Apartment" style="whiteSpace=wrap;html=1;align=center;" parent="1" vertex="1">
          <mxGeometry x="982.5" y="905" width="100" height="40" as="geometry" />
        </mxCell>
        <mxCell id="o08p62BVp6ES0wWiFjN2-51" value="Hall of Residence" style="whiteSpace=wrap;html=1;align=center;" parent="1" vertex="1">
          <mxGeometry x="1100" y="686" width="100" height="40" as="geometry" />
        </mxCell>
        <mxCell id="o08p62BVp6ES0wWiFjN2-52" value="Inspection" style="whiteSpace=wrap;html=1;align=center;" parent="1" vertex="1">
          <mxGeometry x="810" y="980" width="100" height="40" as="geometry" />
        </mxCell>
        <mxCell id="o08p62BVp6ES0wWiFjN2-53" value="Room" style="whiteSpace=wrap;html=1;align=center;" parent="1" vertex="1">
          <mxGeometry x="650" y="645" width="100" height="40" as="geometry" />
        </mxCell>
        <mxCell id="o08p62BVp6ES0wWiFjN2-56" value="d" style="ellipse;whiteSpace=wrap;html=1;" parent="1" vertex="1">
          <mxGeometry x="900" y="840" width="40" height="30" as="geometry" />
        </mxCell>
        <mxCell id="o08p62BVp6ES0wWiFjN2-57" value="" style="endArrow=none;html=1;rounded=0;exitX=0.75;exitY=1;exitDx=0;exitDy=0;entryX=0.5;entryY=0;entryDx=0;entryDy=0;edgeStyle=orthogonalEdgeStyle;" parent="1" source="o08p62BVp6ES0wWiFjN2-53" target="o08p62BVp6ES0wWiFjN2-56" edge="1">
          <mxGeometry relative="1" as="geometry">
            <mxPoint x="460" y="532" as="sourcePoint" />
            <mxPoint x="620" y="532" as="targetPoint" />
            <Array as="points">
              <mxPoint x="725" y="780" />
              <mxPoint x="920" y="780" />
            </Array>
          </mxGeometry>
        </mxCell>
        <mxCell id="o08p62BVp6ES0wWiFjN2-58" value="" style="endArrow=none;html=1;rounded=0;exitX=0.5;exitY=0;exitDx=0;exitDy=0;entryX=0.736;entryY=0.923;entryDx=0;entryDy=0;entryPerimeter=0;" parent="1" source="o08p62BVp6ES0wWiFjN2-50" target="o08p62BVp6ES0wWiFjN2-56" edge="1">
          <mxGeometry relative="1" as="geometry">
            <mxPoint x="570" y="554" as="sourcePoint" />
            <mxPoint x="1015.7550165854959" y="887.5289007846341" as="targetPoint" />
          </mxGeometry>
        </mxCell>
        <mxCell id="o08p62BVp6ES0wWiFjN2-64" value="U" style="edgeLabel;html=1;align=center;verticalAlign=middle;resizable=0;points=[];" parent="o08p62BVp6ES0wWiFjN2-58" vertex="1" connectable="0">
          <mxGeometry x="0.1675" relative="1" as="geometry">
            <mxPoint as="offset" />
          </mxGeometry>
        </mxCell>
        <mxCell id="o08p62BVp6ES0wWiFjN2-59" value="" style="endArrow=none;html=1;rounded=0;exitX=1;exitY=0;exitDx=0;exitDy=0;entryX=0;entryY=0.5;entryDx=0;entryDy=0;" parent="1" source="o08p62BVp6ES0wWiFjN2-56" target="o08p62BVp6ES0wWiFjN2-51" edge="1">
          <mxGeometry relative="1" as="geometry">
            <mxPoint x="460" y="532" as="sourcePoint" />
            <mxPoint x="620" y="532" as="targetPoint" />
          </mxGeometry>
        </mxCell>
        <mxCell id="o08p62BVp6ES0wWiFjN2-63" value="U" style="edgeLabel;html=1;align=center;verticalAlign=middle;resizable=0;points=[];" parent="o08p62BVp6ES0wWiFjN2-59" vertex="1" connectable="0">
          <mxGeometry x="-0.1691" relative="1" as="geometry">
            <mxPoint as="offset" />
          </mxGeometry>
        </mxCell>
        <mxCell id="o08p62BVp6ES0wWiFjN2-66" value="" style="endArrow=none;html=1;rounded=0;entryX=0.25;entryY=1;entryDx=0;entryDy=0;exitX=1;exitY=0.5;exitDx=0;exitDy=0;edgeStyle=orthogonalEdgeStyle;" parent="1" source="IP0mqPOCSbXhTDtQ9ogp-166" target="o08p62BVp6ES0wWiFjN2-53" edge="1">
          <mxGeometry relative="1" as="geometry">
            <mxPoint x="460" y="532" as="sourcePoint" />
            <mxPoint x="620" y="532" as="targetPoint" />
          </mxGeometry>
        </mxCell>
        <mxCell id="IP0mqPOCSbXhTDtQ9ogp-243" value="M" style="edgeLabel;html=1;align=center;verticalAlign=middle;resizable=0;points=[];" parent="o08p62BVp6ES0wWiFjN2-66" vertex="1" connectable="0">
          <mxGeometry x="0.7644" relative="1" as="geometry">
            <mxPoint as="offset" />
          </mxGeometry>
        </mxCell>
        <mxCell id="o08p62BVp6ES0wWiFjN2-78" value="" style="endArrow=none;html=1;rounded=0;exitX=0;exitY=0.5;exitDx=0;exitDy=0;entryX=0.75;entryY=0;entryDx=0;entryDy=0;edgeStyle=orthogonalEdgeStyle;" parent="1" source="IP0mqPOCSbXhTDtQ9ogp-152" target="o08p62BVp6ES0wWiFjN2-53" edge="1">
          <mxGeometry relative="1" as="geometry">
            <mxPoint x="490" y="310" as="sourcePoint" />
            <mxPoint x="650" y="310" as="targetPoint" />
            <Array as="points">
              <mxPoint x="900" y="520" />
              <mxPoint x="725" y="520" />
            </Array>
          </mxGeometry>
        </mxCell>
        <mxCell id="IP0mqPOCSbXhTDtQ9ogp-238" value="1" style="edgeLabel;html=1;align=center;verticalAlign=middle;resizable=0;points=[];" parent="o08p62BVp6ES0wWiFjN2-78" vertex="1" connectable="0">
          <mxGeometry x="0.8387" y="-1" relative="1" as="geometry">
            <mxPoint as="offset" />
          </mxGeometry>
        </mxCell>
        <mxCell id="IP0mqPOCSbXhTDtQ9ogp-3" value="&lt;u&gt;BannerNumber&lt;/u&gt;" style="ellipse;whiteSpace=wrap;html=1;align=center;" parent="1" vertex="1">
          <mxGeometry x="102.5" y="30" width="97.5" height="40" as="geometry" />
        </mxCell>
        <mxCell id="IP0mqPOCSbXhTDtQ9ogp-4" value="FirstName" style="ellipse;whiteSpace=wrap;html=1;align=center;" parent="1" vertex="1">
          <mxGeometry x="245" y="-220" width="80" height="40" as="geometry" />
        </mxCell>
        <mxCell id="IP0mqPOCSbXhTDtQ9ogp-6" value="Name" style="ellipse;whiteSpace=wrap;html=1;align=center;" parent="1" vertex="1">
          <mxGeometry x="290" y="-150" width="80" height="40" as="geometry" />
        </mxCell>
        <mxCell id="IP0mqPOCSbXhTDtQ9ogp-7" value="LastName" style="ellipse;whiteSpace=wrap;html=1;align=center;" parent="1" vertex="1">
          <mxGeometry x="345" y="-210" width="80" height="40" as="geometry" />
        </mxCell>
        <mxCell id="IP0mqPOCSbXhTDtQ9ogp-8" value="Address" style="ellipse;whiteSpace=wrap;html=1;align=center;" parent="1" vertex="1">
          <mxGeometry x="145" y="-10" width="80" height="40" as="geometry" />
        </mxCell>
        <mxCell id="IP0mqPOCSbXhTDtQ9ogp-9" value="MobilePhoneNumber" style="ellipse;whiteSpace=wrap;html=1;align=center;" parent="1" vertex="1">
          <mxGeometry x="340" y="-100" width="145" height="40" as="geometry" />
        </mxCell>
        <mxCell id="IP0mqPOCSbXhTDtQ9ogp-10" value="Email" style="ellipse;whiteSpace=wrap;html=1;align=center;" parent="1" vertex="1">
          <mxGeometry x="445" width="80" height="40" as="geometry" />
        </mxCell>
        <mxCell id="IP0mqPOCSbXhTDtQ9ogp-11" value="Gender&lt;span style=&quot;color: rgba(0, 0, 0, 0); font-family: monospace; font-size: 0px; text-align: start; text-wrap: nowrap;&quot;&gt;%3CmxGraphModel%3E%3Croot%3E%3CmxCell%20id%3D%220%22%2F%3E%3CmxCell%20id%3D%221%22%20parent%3D%220%22%2F%3E%3CmxCell%20id%3D%222%22%20value%3D%22Name%22%20style%3D%22ellipse%3BwhiteSpace%3Dwrap%3Bhtml%3D1%3Balign%3Dcenter%3B%22%20vertex%3D%221%22%20parent%3D%221%22%3E%3CmxGeometry%20x%3D%22220%22%20y%3D%2220%22%20width%3D%2280%22%20height%3D%2240%22%20as%3D%22geometry%22%2F%3E%3C%2FmxCell%3E%3C%2Froot%3E%3C%2FmxGraphModel%3E&lt;/span&gt;" style="ellipse;whiteSpace=wrap;html=1;align=center;" parent="1" vertex="1">
          <mxGeometry x="100" y="80" width="80" height="40" as="geometry" />
        </mxCell>
        <mxCell id="IP0mqPOCSbXhTDtQ9ogp-12" value="DateOfBirth" style="ellipse;whiteSpace=wrap;html=1;align=center;" parent="1" vertex="1">
          <mxGeometry x="455" y="60" width="80" height="40" as="geometry" />
        </mxCell>
        <mxCell id="IP0mqPOCSbXhTDtQ9ogp-13" value="Category" style="ellipse;whiteSpace=wrap;html=1;align=center;" parent="1" vertex="1">
          <mxGeometry x="187.5" y="-60" width="80" height="40" as="geometry" />
        </mxCell>
        <mxCell id="IP0mqPOCSbXhTDtQ9ogp-14" value="" style="endArrow=none;html=1;rounded=0;entryX=0.5;entryY=1;entryDx=0;entryDy=0;exitX=0.313;exitY=0;exitDx=0;exitDy=0;exitPerimeter=0;" parent="1" source="IP0mqPOCSbXhTDtQ9ogp-6" target="IP0mqPOCSbXhTDtQ9ogp-4" edge="1">
          <mxGeometry relative="1" as="geometry">
            <mxPoint x="230" y="130" as="sourcePoint" />
            <mxPoint x="430" y="40" as="targetPoint" />
          </mxGeometry>
        </mxCell>
        <mxCell id="IP0mqPOCSbXhTDtQ9ogp-15" value="" style="endArrow=none;html=1;rounded=0;entryX=0.5;entryY=1;entryDx=0;entryDy=0;exitX=1;exitY=0;exitDx=0;exitDy=0;" parent="1" source="IP0mqPOCSbXhTDtQ9ogp-6" target="IP0mqPOCSbXhTDtQ9ogp-7" edge="1">
          <mxGeometry relative="1" as="geometry">
            <mxPoint x="280" y="30" as="sourcePoint" />
            <mxPoint x="480" y="-60" as="targetPoint" />
          </mxGeometry>
        </mxCell>
        <mxCell id="IP0mqPOCSbXhTDtQ9ogp-16" value="Nationality" style="ellipse;whiteSpace=wrap;html=1;align=center;" parent="1" vertex="1">
          <mxGeometry x="410" y="-50" width="80" height="40" as="geometry" />
        </mxCell>
        <mxCell id="IP0mqPOCSbXhTDtQ9ogp-17" value="SpecialNeeds" style="ellipse;whiteSpace=wrap;html=1;align=center;" parent="1" vertex="1">
          <mxGeometry x="78.75" y="125" width="80" height="40" as="geometry" />
        </mxCell>
        <mxCell id="IP0mqPOCSbXhTDtQ9ogp-18" value="Comments" style="ellipse;whiteSpace=wrap;html=1;align=center;" parent="1" vertex="1">
          <mxGeometry x="445" y="115" width="80" height="40" as="geometry" />
        </mxCell>
        <mxCell id="IP0mqPOCSbXhTDtQ9ogp-19" value="CurrentStatus" style="ellipse;whiteSpace=wrap;html=1;align=center;" parent="1" vertex="1">
          <mxGeometry x="230" y="-110" width="80" height="40" as="geometry" />
        </mxCell>
        <mxCell id="IP0mqPOCSbXhTDtQ9ogp-20" value="Major" style="ellipse;whiteSpace=wrap;html=1;align=center;" parent="1" vertex="1">
          <mxGeometry x="405" y="170" width="80" height="40" as="geometry" />
        </mxCell>
        <mxCell id="IP0mqPOCSbXhTDtQ9ogp-21" value="Minor" style="ellipse;whiteSpace=wrap;html=1;align=center;" parent="1" vertex="1">
          <mxGeometry x="110" y="177.5" width="80" height="40" as="geometry" />
        </mxCell>
        <mxCell id="IP0mqPOCSbXhTDtQ9ogp-23" value="" style="endArrow=none;html=1;rounded=0;entryX=0;entryY=0.5;entryDx=0;entryDy=0;exitX=0.5;exitY=0;exitDx=0;exitDy=0;" parent="1" source="o08p62BVp6ES0wWiFjN2-1" target="IP0mqPOCSbXhTDtQ9ogp-20" edge="1">
          <mxGeometry relative="1" as="geometry">
            <mxPoint x="313" y="-294" as="sourcePoint" />
            <mxPoint x="360" y="-320" as="targetPoint" />
          </mxGeometry>
        </mxCell>
        <mxCell id="IP0mqPOCSbXhTDtQ9ogp-24" value="" style="endArrow=none;html=1;rounded=0;entryX=0;entryY=1;entryDx=0;entryDy=0;exitX=0.5;exitY=0;exitDx=0;exitDy=0;" parent="1" source="o08p62BVp6ES0wWiFjN2-1" target="IP0mqPOCSbXhTDtQ9ogp-18" edge="1">
          <mxGeometry relative="1" as="geometry">
            <mxPoint x="360" y="220" as="sourcePoint" />
            <mxPoint x="545" y="90" as="targetPoint" />
          </mxGeometry>
        </mxCell>
        <mxCell id="IP0mqPOCSbXhTDtQ9ogp-25" value="" style="endArrow=none;html=1;rounded=0;entryX=0;entryY=1;entryDx=0;entryDy=0;exitX=0.5;exitY=0;exitDx=0;exitDy=0;" parent="1" source="o08p62BVp6ES0wWiFjN2-1" target="IP0mqPOCSbXhTDtQ9ogp-12" edge="1">
          <mxGeometry relative="1" as="geometry">
            <mxPoint x="370" y="230" as="sourcePoint" />
            <mxPoint x="555" y="100" as="targetPoint" />
          </mxGeometry>
        </mxCell>
        <mxCell id="IP0mqPOCSbXhTDtQ9ogp-26" value="" style="endArrow=none;html=1;rounded=0;entryX=0.5;entryY=1;entryDx=0;entryDy=0;exitX=0.5;exitY=0;exitDx=0;exitDy=0;" parent="1" source="o08p62BVp6ES0wWiFjN2-1" target="IP0mqPOCSbXhTDtQ9ogp-10" edge="1">
          <mxGeometry relative="1" as="geometry">
            <mxPoint x="380" y="240" as="sourcePoint" />
            <mxPoint x="565" y="110" as="targetPoint" />
          </mxGeometry>
        </mxCell>
        <mxCell id="IP0mqPOCSbXhTDtQ9ogp-27" value="" style="endArrow=none;html=1;rounded=0;entryX=0.5;entryY=1;entryDx=0;entryDy=0;exitX=0.5;exitY=0;exitDx=0;exitDy=0;" parent="1" source="o08p62BVp6ES0wWiFjN2-1" target="IP0mqPOCSbXhTDtQ9ogp-16" edge="1">
          <mxGeometry relative="1" as="geometry">
            <mxPoint x="390" y="250" as="sourcePoint" />
            <mxPoint x="575" y="120" as="targetPoint" />
          </mxGeometry>
        </mxCell>
        <mxCell id="IP0mqPOCSbXhTDtQ9ogp-28" value="" style="endArrow=none;html=1;rounded=0;entryX=0.5;entryY=1;entryDx=0;entryDy=0;exitX=0.5;exitY=0;exitDx=0;exitDy=0;" parent="1" source="o08p62BVp6ES0wWiFjN2-1" target="IP0mqPOCSbXhTDtQ9ogp-9" edge="1">
          <mxGeometry relative="1" as="geometry">
            <mxPoint x="400" y="260" as="sourcePoint" />
            <mxPoint x="585" y="130" as="targetPoint" />
          </mxGeometry>
        </mxCell>
        <mxCell id="IP0mqPOCSbXhTDtQ9ogp-29" value="" style="endArrow=none;html=1;rounded=0;entryX=0.5;entryY=1;entryDx=0;entryDy=0;exitX=0.5;exitY=0;exitDx=0;exitDy=0;" parent="1" source="o08p62BVp6ES0wWiFjN2-1" target="IP0mqPOCSbXhTDtQ9ogp-6" edge="1">
          <mxGeometry relative="1" as="geometry">
            <mxPoint x="410" y="270" as="sourcePoint" />
            <mxPoint x="595" y="140" as="targetPoint" />
          </mxGeometry>
        </mxCell>
        <mxCell id="IP0mqPOCSbXhTDtQ9ogp-30" value="" style="endArrow=none;html=1;rounded=0;entryX=0.5;entryY=1;entryDx=0;entryDy=0;exitX=0.5;exitY=0;exitDx=0;exitDy=0;" parent="1" source="o08p62BVp6ES0wWiFjN2-1" target="IP0mqPOCSbXhTDtQ9ogp-19" edge="1">
          <mxGeometry relative="1" as="geometry">
            <mxPoint x="420" y="280" as="sourcePoint" />
            <mxPoint x="605" y="150" as="targetPoint" />
          </mxGeometry>
        </mxCell>
        <mxCell id="IP0mqPOCSbXhTDtQ9ogp-32" value="" style="endArrow=none;html=1;rounded=0;entryX=0.5;entryY=1;entryDx=0;entryDy=0;exitX=0.5;exitY=0;exitDx=0;exitDy=0;" parent="1" source="o08p62BVp6ES0wWiFjN2-1" target="IP0mqPOCSbXhTDtQ9ogp-13" edge="1">
          <mxGeometry relative="1" as="geometry">
            <mxPoint x="430" y="290" as="sourcePoint" />
            <mxPoint x="615" y="160" as="targetPoint" />
          </mxGeometry>
        </mxCell>
        <mxCell id="IP0mqPOCSbXhTDtQ9ogp-33" value="" style="endArrow=none;html=1;rounded=0;entryX=0.5;entryY=0;entryDx=0;entryDy=0;exitX=1;exitY=1;exitDx=0;exitDy=0;" parent="1" source="IP0mqPOCSbXhTDtQ9ogp-8" target="o08p62BVp6ES0wWiFjN2-1" edge="1">
          <mxGeometry relative="1" as="geometry">
            <mxPoint x="440" y="300" as="sourcePoint" />
            <mxPoint x="625" y="170" as="targetPoint" />
          </mxGeometry>
        </mxCell>
        <mxCell id="IP0mqPOCSbXhTDtQ9ogp-34" value="" style="endArrow=none;html=1;rounded=0;entryX=0.5;entryY=0;entryDx=0;entryDy=0;exitX=1;exitY=1;exitDx=0;exitDy=0;" parent="1" source="IP0mqPOCSbXhTDtQ9ogp-3" target="o08p62BVp6ES0wWiFjN2-1" edge="1">
          <mxGeometry relative="1" as="geometry">
            <mxPoint x="450" y="310" as="sourcePoint" />
            <mxPoint x="635" y="180" as="targetPoint" />
          </mxGeometry>
        </mxCell>
        <mxCell id="IP0mqPOCSbXhTDtQ9ogp-35" value="" style="endArrow=none;html=1;rounded=0;entryX=0.5;entryY=1;entryDx=0;entryDy=0;exitX=0.5;exitY=0;exitDx=0;exitDy=0;" parent="1" source="o08p62BVp6ES0wWiFjN2-1" target="IP0mqPOCSbXhTDtQ9ogp-11" edge="1">
          <mxGeometry relative="1" as="geometry">
            <mxPoint x="460" y="320" as="sourcePoint" />
            <mxPoint x="645" y="190" as="targetPoint" />
          </mxGeometry>
        </mxCell>
        <mxCell id="IP0mqPOCSbXhTDtQ9ogp-38" value="" style="endArrow=none;html=1;rounded=0;entryX=0.5;entryY=0;entryDx=0;entryDy=0;exitX=1;exitY=1;exitDx=0;exitDy=0;" parent="1" source="IP0mqPOCSbXhTDtQ9ogp-17" target="o08p62BVp6ES0wWiFjN2-1" edge="1">
          <mxGeometry relative="1" as="geometry">
            <mxPoint x="470" y="330" as="sourcePoint" />
            <mxPoint x="655" y="200" as="targetPoint" />
          </mxGeometry>
        </mxCell>
        <mxCell id="IP0mqPOCSbXhTDtQ9ogp-39" value="" style="endArrow=none;html=1;rounded=0;entryX=1;entryY=0.5;entryDx=0;entryDy=0;exitX=0.5;exitY=0;exitDx=0;exitDy=0;" parent="1" source="o08p62BVp6ES0wWiFjN2-1" target="IP0mqPOCSbXhTDtQ9ogp-21" edge="1">
          <mxGeometry relative="1" as="geometry">
            <mxPoint x="480" y="340" as="sourcePoint" />
            <mxPoint x="665" y="210" as="targetPoint" />
          </mxGeometry>
        </mxCell>
        <mxCell id="IP0mqPOCSbXhTDtQ9ogp-43" value="" style="endArrow=none;html=1;rounded=0;entryX=0;entryY=0.5;entryDx=0;entryDy=0;exitX=1;exitY=0.25;exitDx=0;exitDy=0;" parent="1" source="o08p62BVp6ES0wWiFjN2-1" target="o08p62BVp6ES0wWiFjN2-3" edge="1">
          <mxGeometry relative="1" as="geometry">
            <mxPoint x="500" y="360" as="sourcePoint" />
            <mxPoint x="685" y="230" as="targetPoint" />
          </mxGeometry>
        </mxCell>
        <mxCell id="IP0mqPOCSbXhTDtQ9ogp-235" value="M" style="edgeLabel;html=1;align=center;verticalAlign=middle;resizable=0;points=[];" parent="IP0mqPOCSbXhTDtQ9ogp-43" vertex="1" connectable="0">
          <mxGeometry x="-0.9199" relative="1" as="geometry">
            <mxPoint as="offset" />
          </mxGeometry>
        </mxCell>
        <mxCell id="IP0mqPOCSbXhTDtQ9ogp-44" value="&lt;u&gt;AdvisorID&lt;/u&gt;" style="ellipse;whiteSpace=wrap;html=1;align=center;" parent="1" vertex="1">
          <mxGeometry x="960" y="-180" width="100" height="40" as="geometry" />
        </mxCell>
        <mxCell id="IP0mqPOCSbXhTDtQ9ogp-45" value="Name" style="ellipse;whiteSpace=wrap;html=1;align=center;" parent="1" vertex="1">
          <mxGeometry x="1060" y="-220" width="100" height="40" as="geometry" />
        </mxCell>
        <mxCell id="IP0mqPOCSbXhTDtQ9ogp-47" value="Position" style="ellipse;whiteSpace=wrap;html=1;align=center;" parent="1" vertex="1">
          <mxGeometry x="1180" y="-200" width="100" height="40" as="geometry" />
        </mxCell>
        <mxCell id="IP0mqPOCSbXhTDtQ9ogp-48" value="DepartmentName" style="ellipse;whiteSpace=wrap;html=1;align=center;" parent="1" vertex="1">
          <mxGeometry x="880" y="-130" width="100" height="40" as="geometry" />
        </mxCell>
        <mxCell id="IP0mqPOCSbXhTDtQ9ogp-49" value="InternalPhoneNumber" style="ellipse;whiteSpace=wrap;html=1;align=center;" parent="1" vertex="1">
          <mxGeometry x="1320" y="-80" width="130" height="40" as="geometry" />
        </mxCell>
        <mxCell id="IP0mqPOCSbXhTDtQ9ogp-50" value="Email" style="ellipse;whiteSpace=wrap;html=1;align=center;" parent="1" vertex="1">
          <mxGeometry x="870" y="-50" width="100" height="40" as="geometry" />
        </mxCell>
        <mxCell id="IP0mqPOCSbXhTDtQ9ogp-51" value="RoomNumber" style="ellipse;whiteSpace=wrap;html=1;align=center;" parent="1" vertex="1">
          <mxGeometry x="1280" y="-150" width="100" height="40" as="geometry" />
        </mxCell>
        <mxCell id="IP0mqPOCSbXhTDtQ9ogp-53" value="" style="endArrow=none;html=1;rounded=0;exitX=0.5;exitY=0;exitDx=0;exitDy=0;entryX=0.5;entryY=1;entryDx=0;entryDy=0;" parent="1" source="o08p62BVp6ES0wWiFjN2-2" target="IP0mqPOCSbXhTDtQ9ogp-50" edge="1">
          <mxGeometry relative="1" as="geometry">
            <mxPoint x="860" y="185" as="sourcePoint" />
            <mxPoint x="1090" y="80" as="targetPoint" />
          </mxGeometry>
        </mxCell>
        <mxCell id="IP0mqPOCSbXhTDtQ9ogp-54" value="" style="endArrow=none;html=1;rounded=0;exitX=0.5;exitY=0;exitDx=0;exitDy=0;entryX=0.5;entryY=1;entryDx=0;entryDy=0;" parent="1" source="o08p62BVp6ES0wWiFjN2-2" target="IP0mqPOCSbXhTDtQ9ogp-49" edge="1">
          <mxGeometry relative="1" as="geometry">
            <mxPoint x="870" y="195" as="sourcePoint" />
            <mxPoint x="1100" y="90" as="targetPoint" />
          </mxGeometry>
        </mxCell>
        <mxCell id="IP0mqPOCSbXhTDtQ9ogp-55" value="" style="endArrow=none;html=1;rounded=0;exitX=0.5;exitY=0;exitDx=0;exitDy=0;entryX=0.5;entryY=1;entryDx=0;entryDy=0;" parent="1" source="o08p62BVp6ES0wWiFjN2-2" target="IP0mqPOCSbXhTDtQ9ogp-44" edge="1">
          <mxGeometry relative="1" as="geometry">
            <mxPoint x="880" y="205" as="sourcePoint" />
            <mxPoint x="1110" y="100" as="targetPoint" />
          </mxGeometry>
        </mxCell>
        <mxCell id="IP0mqPOCSbXhTDtQ9ogp-56" value="" style="endArrow=none;html=1;rounded=0;exitX=0.5;exitY=0;exitDx=0;exitDy=0;entryX=0.5;entryY=1;entryDx=0;entryDy=0;" parent="1" source="o08p62BVp6ES0wWiFjN2-2" target="IP0mqPOCSbXhTDtQ9ogp-45" edge="1">
          <mxGeometry relative="1" as="geometry">
            <mxPoint x="890" y="215" as="sourcePoint" />
            <mxPoint x="1120" y="110" as="targetPoint" />
          </mxGeometry>
        </mxCell>
        <mxCell id="IP0mqPOCSbXhTDtQ9ogp-57" value="" style="endArrow=none;html=1;rounded=0;exitX=0.5;exitY=0;exitDx=0;exitDy=0;entryX=0.5;entryY=1;entryDx=0;entryDy=0;" parent="1" source="o08p62BVp6ES0wWiFjN2-2" target="IP0mqPOCSbXhTDtQ9ogp-48" edge="1">
          <mxGeometry relative="1" as="geometry">
            <mxPoint x="900" y="225" as="sourcePoint" />
            <mxPoint x="1130" y="120" as="targetPoint" />
          </mxGeometry>
        </mxCell>
        <mxCell id="IP0mqPOCSbXhTDtQ9ogp-58" value="" style="endArrow=none;html=1;rounded=0;exitX=0.5;exitY=0;exitDx=0;exitDy=0;entryX=0.5;entryY=1;entryDx=0;entryDy=0;" parent="1" source="o08p62BVp6ES0wWiFjN2-2" target="IP0mqPOCSbXhTDtQ9ogp-47" edge="1">
          <mxGeometry relative="1" as="geometry">
            <mxPoint x="910" y="235" as="sourcePoint" />
            <mxPoint x="1140" y="130" as="targetPoint" />
          </mxGeometry>
        </mxCell>
        <mxCell id="IP0mqPOCSbXhTDtQ9ogp-59" value="" style="endArrow=none;html=1;rounded=0;exitX=0.5;exitY=0;exitDx=0;exitDy=0;entryX=0.5;entryY=1;entryDx=0;entryDy=0;" parent="1" source="o08p62BVp6ES0wWiFjN2-2" target="IP0mqPOCSbXhTDtQ9ogp-51" edge="1">
          <mxGeometry relative="1" as="geometry">
            <mxPoint x="920" y="245" as="sourcePoint" />
            <mxPoint x="1150" y="140" as="targetPoint" />
          </mxGeometry>
        </mxCell>
        <mxCell id="IP0mqPOCSbXhTDtQ9ogp-61" value="FirstName" style="ellipse;whiteSpace=wrap;html=1;align=center;" parent="1" vertex="1">
          <mxGeometry x="960" y="-320" width="100" height="40" as="geometry" />
        </mxCell>
        <mxCell id="IP0mqPOCSbXhTDtQ9ogp-62" value="LastName" style="ellipse;whiteSpace=wrap;html=1;align=center;" parent="1" vertex="1">
          <mxGeometry x="1140" y="-330" width="100" height="40" as="geometry" />
        </mxCell>
        <mxCell id="IP0mqPOCSbXhTDtQ9ogp-63" value="" style="endArrow=none;html=1;rounded=0;exitX=0.5;exitY=0;exitDx=0;exitDy=0;entryX=0.5;entryY=1;entryDx=0;entryDy=0;" parent="1" source="IP0mqPOCSbXhTDtQ9ogp-45" target="IP0mqPOCSbXhTDtQ9ogp-61" edge="1">
          <mxGeometry relative="1" as="geometry">
            <mxPoint x="1140" y="60" as="sourcePoint" />
            <mxPoint x="1120" y="-170" as="targetPoint" />
          </mxGeometry>
        </mxCell>
        <mxCell id="IP0mqPOCSbXhTDtQ9ogp-64" value="" style="endArrow=none;html=1;rounded=0;exitX=0.5;exitY=0;exitDx=0;exitDy=0;entryX=0.5;entryY=1;entryDx=0;entryDy=0;" parent="1" source="IP0mqPOCSbXhTDtQ9ogp-45" target="IP0mqPOCSbXhTDtQ9ogp-62" edge="1">
          <mxGeometry relative="1" as="geometry">
            <mxPoint x="1150" y="70" as="sourcePoint" />
            <mxPoint x="1130" y="-160" as="targetPoint" />
          </mxGeometry>
        </mxCell>
        <mxCell id="IP0mqPOCSbXhTDtQ9ogp-66" value="Enrolls" style="shape=rhombus;perimeter=rhombusPerimeter;whiteSpace=wrap;html=1;align=center;" parent="1" vertex="1">
          <mxGeometry x="-37.5" y="215" width="72.5" height="50" as="geometry" />
        </mxCell>
        <mxCell id="IP0mqPOCSbXhTDtQ9ogp-69" value="" style="endArrow=none;html=1;rounded=0;exitX=1;exitY=0.5;exitDx=0;exitDy=0;entryX=0;entryY=0.5;entryDx=0;entryDy=0;" parent="1" source="IP0mqPOCSbXhTDtQ9ogp-66" target="o08p62BVp6ES0wWiFjN2-1" edge="1">
          <mxGeometry relative="1" as="geometry">
            <mxPoint x="-430" y="428" as="sourcePoint" />
            <mxPoint x="-190" y="420" as="targetPoint" />
          </mxGeometry>
        </mxCell>
        <mxCell id="IP0mqPOCSbXhTDtQ9ogp-226" value="M" style="edgeLabel;html=1;align=center;verticalAlign=middle;resizable=0;points=[];" parent="IP0mqPOCSbXhTDtQ9ogp-69" vertex="1" connectable="0">
          <mxGeometry x="0.818" y="2" relative="1" as="geometry">
            <mxPoint x="1" as="offset" />
          </mxGeometry>
        </mxCell>
        <mxCell id="IP0mqPOCSbXhTDtQ9ogp-70" value="" style="endArrow=none;html=1;rounded=0;exitX=1;exitY=0.5;exitDx=0;exitDy=0;entryX=0;entryY=0.5;entryDx=0;entryDy=0;" parent="1" source="o08p62BVp6ES0wWiFjN2-19" target="IP0mqPOCSbXhTDtQ9ogp-66" edge="1">
          <mxGeometry relative="1" as="geometry">
            <mxPoint x="-420" y="438" as="sourcePoint" />
            <mxPoint x="-180" y="430" as="targetPoint" />
          </mxGeometry>
        </mxCell>
        <mxCell id="IP0mqPOCSbXhTDtQ9ogp-225" value="M" style="edgeLabel;html=1;align=center;verticalAlign=middle;resizable=0;points=[];" parent="IP0mqPOCSbXhTDtQ9ogp-70" vertex="1" connectable="0">
          <mxGeometry x="-0.5863" y="1" relative="1" as="geometry">
            <mxPoint x="1" as="offset" />
          </mxGeometry>
        </mxCell>
        <mxCell id="IP0mqPOCSbXhTDtQ9ogp-71" value="&lt;u&gt;CourseNumber&lt;/u&gt;" style="ellipse;whiteSpace=wrap;html=1;align=center;" parent="1" vertex="1">
          <mxGeometry x="-465" y="120" width="95" height="50" as="geometry" />
        </mxCell>
        <mxCell id="IP0mqPOCSbXhTDtQ9ogp-72" value="CourseTitle" style="ellipse;whiteSpace=wrap;html=1;align=center;" parent="1" vertex="1">
          <mxGeometry x="-530" y="190" width="80" height="40" as="geometry" />
        </mxCell>
        <mxCell id="IP0mqPOCSbXhTDtQ9ogp-73" value="InstructorName" style="ellipse;whiteSpace=wrap;html=1;align=center;" parent="1" vertex="1">
          <mxGeometry x="-260" y="130" width="90" height="40" as="geometry" />
        </mxCell>
        <mxCell id="IP0mqPOCSbXhTDtQ9ogp-75" value="InstructorPhoneNumber" style="ellipse;whiteSpace=wrap;html=1;align=center;" parent="1" vertex="1">
          <mxGeometry x="-575" y="250" width="150" height="50" as="geometry" />
        </mxCell>
        <mxCell id="IP0mqPOCSbXhTDtQ9ogp-76" value="InstructorEmail" style="ellipse;whiteSpace=wrap;html=1;align=center;" parent="1" vertex="1">
          <mxGeometry x="-440" y="315" width="80" height="40" as="geometry" />
        </mxCell>
        <mxCell id="IP0mqPOCSbXhTDtQ9ogp-77" value="InstructorRoomNumber" style="ellipse;whiteSpace=wrap;html=1;align=center;" parent="1" vertex="1">
          <mxGeometry x="-340" y="310" width="160" height="50" as="geometry" />
        </mxCell>
        <mxCell id="IP0mqPOCSbXhTDtQ9ogp-78" value="DepartmentName" style="ellipse;whiteSpace=wrap;html=1;align=center;" parent="1" vertex="1">
          <mxGeometry x="-360" y="110" width="100" height="50" as="geometry" />
        </mxCell>
        <mxCell id="IP0mqPOCSbXhTDtQ9ogp-79" value="" style="endArrow=none;html=1;rounded=0;exitX=0.5;exitY=1;exitDx=0;exitDy=0;entryX=0.75;entryY=0;entryDx=0;entryDy=0;" parent="1" source="IP0mqPOCSbXhTDtQ9ogp-73" target="o08p62BVp6ES0wWiFjN2-19" edge="1">
          <mxGeometry relative="1" as="geometry">
            <mxPoint x="-230" y="245" as="sourcePoint" />
            <mxPoint x="-142" y="245" as="targetPoint" />
          </mxGeometry>
        </mxCell>
        <mxCell id="IP0mqPOCSbXhTDtQ9ogp-80" value="" style="endArrow=none;html=1;rounded=0;exitX=0.5;exitY=1;exitDx=0;exitDy=0;entryX=0.5;entryY=0;entryDx=0;entryDy=0;" parent="1" source="IP0mqPOCSbXhTDtQ9ogp-78" target="o08p62BVp6ES0wWiFjN2-19" edge="1">
          <mxGeometry relative="1" as="geometry">
            <mxPoint x="-220" y="255" as="sourcePoint" />
            <mxPoint x="-132" y="255" as="targetPoint" />
          </mxGeometry>
        </mxCell>
        <mxCell id="IP0mqPOCSbXhTDtQ9ogp-81" value="" style="endArrow=none;html=1;rounded=0;exitX=0.5;exitY=1;exitDx=0;exitDy=0;entryX=0.25;entryY=0;entryDx=0;entryDy=0;" parent="1" source="IP0mqPOCSbXhTDtQ9ogp-71" target="o08p62BVp6ES0wWiFjN2-19" edge="1">
          <mxGeometry relative="1" as="geometry">
            <mxPoint x="-210" y="265" as="sourcePoint" />
            <mxPoint x="-122" y="265" as="targetPoint" />
          </mxGeometry>
        </mxCell>
        <mxCell id="IP0mqPOCSbXhTDtQ9ogp-82" value="" style="endArrow=none;html=1;rounded=0;exitX=1;exitY=0.5;exitDx=0;exitDy=0;entryX=0;entryY=0.25;entryDx=0;entryDy=0;" parent="1" source="IP0mqPOCSbXhTDtQ9ogp-72" target="o08p62BVp6ES0wWiFjN2-19" edge="1">
          <mxGeometry relative="1" as="geometry">
            <mxPoint x="-200" y="275" as="sourcePoint" />
            <mxPoint x="-112" y="275" as="targetPoint" />
          </mxGeometry>
        </mxCell>
        <mxCell id="IP0mqPOCSbXhTDtQ9ogp-83" value="" style="endArrow=none;html=1;rounded=0;exitX=1;exitY=0.5;exitDx=0;exitDy=0;entryX=0;entryY=0.5;entryDx=0;entryDy=0;" parent="1" source="IP0mqPOCSbXhTDtQ9ogp-75" target="o08p62BVp6ES0wWiFjN2-19" edge="1">
          <mxGeometry relative="1" as="geometry">
            <mxPoint x="-190" y="285" as="sourcePoint" />
            <mxPoint x="-102" y="285" as="targetPoint" />
          </mxGeometry>
        </mxCell>
        <mxCell id="IP0mqPOCSbXhTDtQ9ogp-84" value="" style="endArrow=none;html=1;rounded=0;exitX=0;exitY=0.75;exitDx=0;exitDy=0;entryX=0.5;entryY=0;entryDx=0;entryDy=0;" parent="1" source="o08p62BVp6ES0wWiFjN2-19" target="IP0mqPOCSbXhTDtQ9ogp-76" edge="1">
          <mxGeometry relative="1" as="geometry">
            <mxPoint x="-180" y="295" as="sourcePoint" />
            <mxPoint x="-92" y="295" as="targetPoint" />
          </mxGeometry>
        </mxCell>
        <mxCell id="IP0mqPOCSbXhTDtQ9ogp-85" value="" style="endArrow=none;html=1;rounded=0;exitX=0.5;exitY=1;exitDx=0;exitDy=0;entryX=0.5;entryY=0;entryDx=0;entryDy=0;" parent="1" source="o08p62BVp6ES0wWiFjN2-19" target="IP0mqPOCSbXhTDtQ9ogp-77" edge="1">
          <mxGeometry relative="1" as="geometry">
            <mxPoint x="-170" y="305" as="sourcePoint" />
            <mxPoint x="-82" y="305" as="targetPoint" />
          </mxGeometry>
        </mxCell>
        <mxCell id="IP0mqPOCSbXhTDtQ9ogp-87" value="&lt;u&gt;NextOfKinID&lt;/u&gt;" style="ellipse;whiteSpace=wrap;html=1;align=center;" parent="1" vertex="1">
          <mxGeometry x="-410" y="458" width="80" height="40" as="geometry" />
        </mxCell>
        <mxCell id="IP0mqPOCSbXhTDtQ9ogp-89" value="LastName" style="ellipse;whiteSpace=wrap;html=1;align=center;" parent="1" vertex="1">
          <mxGeometry x="-560" y="605" width="80" height="40" as="geometry" />
        </mxCell>
        <mxCell id="IP0mqPOCSbXhTDtQ9ogp-90" value="Relationship" style="ellipse;whiteSpace=wrap;html=1;align=center;" parent="1" vertex="1">
          <mxGeometry x="-210" y="620" width="80" height="40" as="geometry" />
        </mxCell>
        <mxCell id="IP0mqPOCSbXhTDtQ9ogp-91" value="Address" style="ellipse;whiteSpace=wrap;html=1;align=center;" parent="1" vertex="1">
          <mxGeometry x="-220" y="458" width="80" height="40" as="geometry" />
        </mxCell>
        <mxCell id="IP0mqPOCSbXhTDtQ9ogp-92" value="ContactPhoneNumber" style="ellipse;whiteSpace=wrap;html=1;align=center;" parent="1" vertex="1">
          <mxGeometry x="-370" y="620" width="130" height="40" as="geometry" />
        </mxCell>
        <mxCell id="IP0mqPOCSbXhTDtQ9ogp-93" value="FirstName" style="ellipse;whiteSpace=wrap;html=1;align=center;" parent="1" vertex="1">
          <mxGeometry x="-560" y="493" width="80" height="40" as="geometry" />
        </mxCell>
        <mxCell id="IP0mqPOCSbXhTDtQ9ogp-94" value="Name" style="ellipse;whiteSpace=wrap;html=1;align=center;" parent="1" vertex="1">
          <mxGeometry x="-465" y="545" width="80" height="40" as="geometry" />
        </mxCell>
        <mxCell id="IP0mqPOCSbXhTDtQ9ogp-95" value="" style="endArrow=none;html=1;rounded=0;exitX=0.5;exitY=1;exitDx=0;exitDy=0;entryX=0.75;entryY=0;entryDx=0;entryDy=0;" parent="1" source="IP0mqPOCSbXhTDtQ9ogp-91" target="o08p62BVp6ES0wWiFjN2-35" edge="1">
          <mxGeometry relative="1" as="geometry">
            <mxPoint x="-210" y="568" as="sourcePoint" />
            <mxPoint x="-90" y="570" as="targetPoint" />
          </mxGeometry>
        </mxCell>
        <mxCell id="IP0mqPOCSbXhTDtQ9ogp-96" value="" style="endArrow=none;html=1;rounded=0;exitX=0.5;exitY=1;exitDx=0;exitDy=0;entryX=0.5;entryY=0;entryDx=0;entryDy=0;" parent="1" source="IP0mqPOCSbXhTDtQ9ogp-87" target="o08p62BVp6ES0wWiFjN2-35" edge="1">
          <mxGeometry relative="1" as="geometry">
            <mxPoint x="-200" y="578" as="sourcePoint" />
            <mxPoint x="-80" y="580" as="targetPoint" />
          </mxGeometry>
        </mxCell>
        <mxCell id="IP0mqPOCSbXhTDtQ9ogp-97" value="" style="endArrow=none;html=1;rounded=0;exitX=0.75;exitY=1;exitDx=0;exitDy=0;entryX=0.5;entryY=0;entryDx=0;entryDy=0;" parent="1" source="o08p62BVp6ES0wWiFjN2-35" target="IP0mqPOCSbXhTDtQ9ogp-90" edge="1">
          <mxGeometry relative="1" as="geometry">
            <mxPoint x="-190" y="588" as="sourcePoint" />
            <mxPoint x="-70" y="590" as="targetPoint" />
          </mxGeometry>
        </mxCell>
        <mxCell id="IP0mqPOCSbXhTDtQ9ogp-98" value="" style="endArrow=none;html=1;rounded=0;exitX=0.25;exitY=1;exitDx=0;exitDy=0;entryX=0.5;entryY=0;entryDx=0;entryDy=0;" parent="1" source="o08p62BVp6ES0wWiFjN2-35" target="IP0mqPOCSbXhTDtQ9ogp-92" edge="1">
          <mxGeometry relative="1" as="geometry">
            <mxPoint x="-180" y="598" as="sourcePoint" />
            <mxPoint x="-60" y="600" as="targetPoint" />
          </mxGeometry>
        </mxCell>
        <mxCell id="IP0mqPOCSbXhTDtQ9ogp-99" value="" style="endArrow=none;html=1;rounded=0;exitX=1;exitY=0.5;exitDx=0;exitDy=0;entryX=0;entryY=0.75;entryDx=0;entryDy=0;" parent="1" source="IP0mqPOCSbXhTDtQ9ogp-94" target="o08p62BVp6ES0wWiFjN2-35" edge="1">
          <mxGeometry relative="1" as="geometry">
            <mxPoint x="-170" y="608" as="sourcePoint" />
            <mxPoint x="-50" y="610" as="targetPoint" />
          </mxGeometry>
        </mxCell>
        <mxCell id="IP0mqPOCSbXhTDtQ9ogp-100" value="" style="endArrow=none;html=1;rounded=0;exitX=0.5;exitY=1;exitDx=0;exitDy=0;entryX=0;entryY=0.5;entryDx=0;entryDy=0;" parent="1" source="IP0mqPOCSbXhTDtQ9ogp-93" target="IP0mqPOCSbXhTDtQ9ogp-94" edge="1">
          <mxGeometry relative="1" as="geometry">
            <mxPoint x="-160" y="618" as="sourcePoint" />
            <mxPoint x="-40" y="620" as="targetPoint" />
          </mxGeometry>
        </mxCell>
        <mxCell id="IP0mqPOCSbXhTDtQ9ogp-101" value="" style="endArrow=none;html=1;rounded=0;exitX=0.5;exitY=0;exitDx=0;exitDy=0;entryX=0;entryY=0.5;entryDx=0;entryDy=0;" parent="1" source="IP0mqPOCSbXhTDtQ9ogp-89" target="IP0mqPOCSbXhTDtQ9ogp-94" edge="1">
          <mxGeometry relative="1" as="geometry">
            <mxPoint x="-150" y="628" as="sourcePoint" />
            <mxPoint x="-30" y="630" as="targetPoint" />
          </mxGeometry>
        </mxCell>
        <mxCell id="IP0mqPOCSbXhTDtQ9ogp-103" value="&lt;u&gt;InvoiceNumber&lt;/u&gt;" style="ellipse;whiteSpace=wrap;html=1;align=center;" parent="1" vertex="1">
          <mxGeometry x="20" y="690" width="90" height="40" as="geometry" />
        </mxCell>
        <mxCell id="IP0mqPOCSbXhTDtQ9ogp-104" value="Semester" style="ellipse;whiteSpace=wrap;html=1;align=center;" parent="1" vertex="1">
          <mxGeometry x="-90" y="712" width="80" height="40" as="geometry" />
        </mxCell>
        <mxCell id="IP0mqPOCSbXhTDtQ9ogp-105" value="Name" style="ellipse;whiteSpace=wrap;html=1;align=center;" parent="1" vertex="1">
          <mxGeometry x="-10" y="940" width="80" height="40" as="geometry" />
        </mxCell>
        <mxCell id="IP0mqPOCSbXhTDtQ9ogp-107" value="PlaceNumber" style="ellipse;whiteSpace=wrap;html=1;align=center;" parent="1" vertex="1">
          <mxGeometry x="-320" y="720" width="80" height="40" as="geometry" />
        </mxCell>
        <mxCell id="IP0mqPOCSbXhTDtQ9ogp-108" value="RoomNumber" style="ellipse;whiteSpace=wrap;html=1;align=center;" parent="1" vertex="1">
          <mxGeometry x="7.5" y="882" width="80" height="40" as="geometry" />
        </mxCell>
        <mxCell id="IP0mqPOCSbXhTDtQ9ogp-109" value="Address" style="ellipse;whiteSpace=wrap;html=1;align=center;" parent="1" vertex="1">
          <mxGeometry x="-210" y="940" width="80" height="40" as="geometry" />
        </mxCell>
        <mxCell id="IP0mqPOCSbXhTDtQ9ogp-110" value="PaymentDue" style="ellipse;whiteSpace=wrap;html=1;align=center;" parent="1" vertex="1">
          <mxGeometry x="-117.5" y="950" width="80" height="40" as="geometry" />
        </mxCell>
        <mxCell id="IP0mqPOCSbXhTDtQ9ogp-111" value="MethodOfPayment" style="ellipse;whiteSpace=wrap;html=1;align=center;" parent="1" vertex="1">
          <mxGeometry x="-360" y="795" width="120" height="40" as="geometry" />
        </mxCell>
        <mxCell id="IP0mqPOCSbXhTDtQ9ogp-112" value="PaymentDue" style="ellipse;whiteSpace=wrap;html=1;align=center;" parent="1" vertex="1">
          <mxGeometry x="-210" y="712" width="80" height="40" as="geometry" />
        </mxCell>
        <mxCell id="IP0mqPOCSbXhTDtQ9ogp-113" value="FirstReminderDate" style="ellipse;whiteSpace=wrap;html=1;align=center;" parent="1" vertex="1">
          <mxGeometry x="-330" y="912" width="120" height="40" as="geometry" />
        </mxCell>
        <mxCell id="IP0mqPOCSbXhTDtQ9ogp-114" value="SecondReminderDate" style="ellipse;whiteSpace=wrap;html=1;align=center;" parent="1" vertex="1">
          <mxGeometry x="-380" y="860" width="140" height="40" as="geometry" />
        </mxCell>
        <mxCell id="IP0mqPOCSbXhTDtQ9ogp-116" value="" style="endArrow=none;html=1;rounded=0;exitX=0.5;exitY=1;exitDx=0;exitDy=0;entryX=1;entryY=0;entryDx=0;entryDy=0;" parent="1" source="IP0mqPOCSbXhTDtQ9ogp-103" target="o08p62BVp6ES0wWiFjN2-42" edge="1">
          <mxGeometry relative="1" as="geometry">
            <mxPoint x="-360" y="508" as="sourcePoint" />
            <mxPoint x="-260" y="548" as="targetPoint" />
          </mxGeometry>
        </mxCell>
        <mxCell id="IP0mqPOCSbXhTDtQ9ogp-117" value="" style="endArrow=none;html=1;rounded=0;exitX=0.5;exitY=1;exitDx=0;exitDy=0;entryX=0.75;entryY=0;entryDx=0;entryDy=0;" parent="1" source="IP0mqPOCSbXhTDtQ9ogp-104" target="o08p62BVp6ES0wWiFjN2-42" edge="1">
          <mxGeometry relative="1" as="geometry">
            <mxPoint x="75" y="740" as="sourcePoint" />
            <mxPoint x="-42" y="830" as="targetPoint" />
          </mxGeometry>
        </mxCell>
        <mxCell id="IP0mqPOCSbXhTDtQ9ogp-118" value="" style="endArrow=none;html=1;rounded=0;exitX=0.5;exitY=1;exitDx=0;exitDy=0;entryX=0.5;entryY=0;entryDx=0;entryDy=0;" parent="1" source="IP0mqPOCSbXhTDtQ9ogp-112" target="o08p62BVp6ES0wWiFjN2-42" edge="1">
          <mxGeometry relative="1" as="geometry">
            <mxPoint x="85" y="750" as="sourcePoint" />
            <mxPoint x="-32" y="840" as="targetPoint" />
          </mxGeometry>
        </mxCell>
        <mxCell id="IP0mqPOCSbXhTDtQ9ogp-119" value="" style="endArrow=none;html=1;rounded=0;exitX=1;exitY=1;exitDx=0;exitDy=0;entryX=0.25;entryY=0;entryDx=0;entryDy=0;" parent="1" source="IP0mqPOCSbXhTDtQ9ogp-107" target="o08p62BVp6ES0wWiFjN2-42" edge="1">
          <mxGeometry relative="1" as="geometry">
            <mxPoint x="95" y="760" as="sourcePoint" />
            <mxPoint x="-22" y="850" as="targetPoint" />
          </mxGeometry>
        </mxCell>
        <mxCell id="IP0mqPOCSbXhTDtQ9ogp-120" value="" style="endArrow=none;html=1;rounded=0;exitX=1;exitY=0.5;exitDx=0;exitDy=0;entryX=0;entryY=0.25;entryDx=0;entryDy=0;" parent="1" source="IP0mqPOCSbXhTDtQ9ogp-111" target="o08p62BVp6ES0wWiFjN2-42" edge="1">
          <mxGeometry relative="1" as="geometry">
            <mxPoint x="105" y="770" as="sourcePoint" />
            <mxPoint x="-12" y="860" as="targetPoint" />
          </mxGeometry>
        </mxCell>
        <mxCell id="IP0mqPOCSbXhTDtQ9ogp-121" value="" style="endArrow=none;html=1;rounded=0;exitX=0;exitY=0.5;exitDx=0;exitDy=0;entryX=1;entryY=0.5;entryDx=0;entryDy=0;" parent="1" source="o08p62BVp6ES0wWiFjN2-42" target="IP0mqPOCSbXhTDtQ9ogp-114" edge="1">
          <mxGeometry relative="1" as="geometry">
            <mxPoint x="115" y="780" as="sourcePoint" />
            <mxPoint x="-2" y="870" as="targetPoint" />
          </mxGeometry>
        </mxCell>
        <mxCell id="IP0mqPOCSbXhTDtQ9ogp-122" value="" style="endArrow=none;html=1;rounded=0;entryX=0.5;entryY=0;entryDx=0;entryDy=0;exitX=0;exitY=0.75;exitDx=0;exitDy=0;" parent="1" source="o08p62BVp6ES0wWiFjN2-42" target="IP0mqPOCSbXhTDtQ9ogp-113" edge="1">
          <mxGeometry relative="1" as="geometry">
            <mxPoint x="-160" y="870" as="sourcePoint" />
            <mxPoint x="8" y="880" as="targetPoint" />
          </mxGeometry>
        </mxCell>
        <mxCell id="IP0mqPOCSbXhTDtQ9ogp-123" value="" style="endArrow=none;html=1;rounded=0;exitX=0.25;exitY=1;exitDx=0;exitDy=0;entryX=0.5;entryY=0;entryDx=0;entryDy=0;" parent="1" source="o08p62BVp6ES0wWiFjN2-42" target="IP0mqPOCSbXhTDtQ9ogp-109" edge="1">
          <mxGeometry relative="1" as="geometry">
            <mxPoint x="135" y="800" as="sourcePoint" />
            <mxPoint x="18" y="890" as="targetPoint" />
          </mxGeometry>
        </mxCell>
        <mxCell id="IP0mqPOCSbXhTDtQ9ogp-124" value="" style="endArrow=none;html=1;rounded=0;exitX=0.5;exitY=1;exitDx=0;exitDy=0;entryX=0.5;entryY=0;entryDx=0;entryDy=0;" parent="1" source="o08p62BVp6ES0wWiFjN2-42" target="IP0mqPOCSbXhTDtQ9ogp-110" edge="1">
          <mxGeometry relative="1" as="geometry">
            <mxPoint x="145" y="810" as="sourcePoint" />
            <mxPoint x="28" y="900" as="targetPoint" />
          </mxGeometry>
        </mxCell>
        <mxCell id="IP0mqPOCSbXhTDtQ9ogp-125" value="" style="endArrow=none;html=1;rounded=0;exitX=0;exitY=0.5;exitDx=0;exitDy=0;entryX=0.75;entryY=1;entryDx=0;entryDy=0;" parent="1" source="IP0mqPOCSbXhTDtQ9ogp-108" target="o08p62BVp6ES0wWiFjN2-42" edge="1">
          <mxGeometry relative="1" as="geometry">
            <mxPoint x="155" y="820" as="sourcePoint" />
            <mxPoint x="38" y="910" as="targetPoint" />
          </mxGeometry>
        </mxCell>
        <mxCell id="IP0mqPOCSbXhTDtQ9ogp-126" value="" style="endArrow=none;html=1;rounded=0;exitX=0.75;exitY=1;exitDx=0;exitDy=0;entryX=0.5;entryY=0;entryDx=0;entryDy=0;" parent="1" source="o08p62BVp6ES0wWiFjN2-42" target="IP0mqPOCSbXhTDtQ9ogp-105" edge="1">
          <mxGeometry relative="1" as="geometry">
            <mxPoint x="165" y="830" as="sourcePoint" />
            <mxPoint x="48" y="920" as="targetPoint" />
          </mxGeometry>
        </mxCell>
        <mxCell id="IP0mqPOCSbXhTDtQ9ogp-127" value="" style="endArrow=none;html=1;rounded=0;exitX=0.5;exitY=1;exitDx=0;exitDy=0;entryX=0.5;entryY=0;entryDx=0;entryDy=0;" parent="1" source="IP0mqPOCSbXhTDtQ9ogp-105" target="IP0mqPOCSbXhTDtQ9ogp-130" edge="1">
          <mxGeometry relative="1" as="geometry">
            <mxPoint x="175" y="840" as="sourcePoint" />
            <mxPoint x="58" y="930" as="targetPoint" />
          </mxGeometry>
        </mxCell>
        <mxCell id="IP0mqPOCSbXhTDtQ9ogp-128" value="" style="endArrow=none;html=1;rounded=0;exitX=0.5;exitY=1;exitDx=0;exitDy=0;entryX=0.5;entryY=0;entryDx=0;entryDy=0;" parent="1" source="IP0mqPOCSbXhTDtQ9ogp-105" target="IP0mqPOCSbXhTDtQ9ogp-129" edge="1">
          <mxGeometry relative="1" as="geometry">
            <mxPoint x="185" y="850" as="sourcePoint" />
            <mxPoint x="68" y="940" as="targetPoint" />
          </mxGeometry>
        </mxCell>
        <mxCell id="IP0mqPOCSbXhTDtQ9ogp-129" value="LastName" style="ellipse;whiteSpace=wrap;html=1;align=center;" parent="1" vertex="1">
          <mxGeometry x="87.5" y="1010" width="80" height="40" as="geometry" />
        </mxCell>
        <mxCell id="IP0mqPOCSbXhTDtQ9ogp-130" value="FirstName" style="ellipse;whiteSpace=wrap;html=1;align=center;" parent="1" vertex="1">
          <mxGeometry x="-60" y="1020" width="80" height="40" as="geometry" />
        </mxCell>
        <mxCell id="IP0mqPOCSbXhTDtQ9ogp-131" value="Part of" style="shape=rhombus;perimeter=rhombusPerimeter;whiteSpace=wrap;html=1;align=center;" parent="1" vertex="1">
          <mxGeometry x="635" y="398" width="100" height="70" as="geometry" />
        </mxCell>
        <mxCell id="IP0mqPOCSbXhTDtQ9ogp-132" value="" style="endArrow=none;html=1;rounded=0;entryX=0;entryY=0.5;entryDx=0;entryDy=0;exitX=1;exitY=0.5;exitDx=0;exitDy=0;edgeStyle=orthogonalEdgeStyle;" parent="1" source="o08p62BVp6ES0wWiFjN2-1" target="IP0mqPOCSbXhTDtQ9ogp-131" edge="1">
          <mxGeometry relative="1" as="geometry">
            <mxPoint x="440" y="260" as="sourcePoint" />
            <mxPoint x="760" y="230" as="targetPoint" />
            <Array as="points">
              <mxPoint x="470" y="240" />
              <mxPoint x="470" y="433" />
            </Array>
          </mxGeometry>
        </mxCell>
        <mxCell id="IP0mqPOCSbXhTDtQ9ogp-237" value="1" style="edgeLabel;html=1;align=center;verticalAlign=middle;resizable=0;points=[];" parent="IP0mqPOCSbXhTDtQ9ogp-132" vertex="1" connectable="0">
          <mxGeometry x="-0.9431" y="-1" relative="1" as="geometry">
            <mxPoint as="offset" />
          </mxGeometry>
        </mxCell>
        <mxCell id="IP0mqPOCSbXhTDtQ9ogp-133" value="" style="endArrow=none;html=1;rounded=0;entryX=1;entryY=0.5;entryDx=0;entryDy=0;exitX=0;exitY=0.5;exitDx=0;exitDy=0;edgeStyle=orthogonalEdgeStyle;" parent="1" source="o08p62BVp6ES0wWiFjN2-9" target="IP0mqPOCSbXhTDtQ9ogp-131" edge="1">
          <mxGeometry relative="1" as="geometry">
            <mxPoint x="380" y="245" as="sourcePoint" />
            <mxPoint x="770" y="240" as="targetPoint" />
          </mxGeometry>
        </mxCell>
        <mxCell id="IP0mqPOCSbXhTDtQ9ogp-236" value="1" style="edgeLabel;html=1;align=center;verticalAlign=middle;resizable=0;points=[];" parent="IP0mqPOCSbXhTDtQ9ogp-133" vertex="1" connectable="0">
          <mxGeometry x="-0.7878" y="2" relative="1" as="geometry">
            <mxPoint as="offset" />
          </mxGeometry>
        </mxCell>
        <mxCell id="IP0mqPOCSbXhTDtQ9ogp-134" value="&lt;u&gt;LeaseNumber&lt;/u&gt;" style="ellipse;whiteSpace=wrap;html=1;align=center;" parent="1" vertex="1">
          <mxGeometry x="1250" y="238" width="100" height="40" as="geometry" />
        </mxCell>
        <mxCell id="IP0mqPOCSbXhTDtQ9ogp-135" value="Duration" style="ellipse;whiteSpace=wrap;html=1;align=center;" parent="1" vertex="1">
          <mxGeometry x="1120" y="230" width="100" height="40" as="geometry" />
        </mxCell>
        <mxCell id="IP0mqPOCSbXhTDtQ9ogp-136" value="StudentName" style="ellipse;whiteSpace=wrap;html=1;align=center;" parent="1" vertex="1">
          <mxGeometry x="1340" y="288" width="100" height="40" as="geometry" />
        </mxCell>
        <mxCell id="IP0mqPOCSbXhTDtQ9ogp-137" value="RoomNumber" style="ellipse;whiteSpace=wrap;html=1;align=center;" parent="1" vertex="1">
          <mxGeometry x="1360" y="373" width="100" height="40" as="geometry" />
        </mxCell>
        <mxCell id="IP0mqPOCSbXhTDtQ9ogp-138" value="Address" style="ellipse;whiteSpace=wrap;html=1;align=center;" parent="1" vertex="1">
          <mxGeometry x="950" y="333" width="100" height="40" as="geometry" />
        </mxCell>
        <mxCell id="IP0mqPOCSbXhTDtQ9ogp-139" value="StartDate" style="ellipse;whiteSpace=wrap;html=1;align=center;" parent="1" vertex="1">
          <mxGeometry x="1360" y="440" width="100" height="40" as="geometry" />
        </mxCell>
        <mxCell id="IP0mqPOCSbXhTDtQ9ogp-140" value="EndDate" style="ellipse;whiteSpace=wrap;html=1;align=center;" parent="1" vertex="1">
          <mxGeometry x="1020" y="278" width="100" height="40" as="geometry" />
        </mxCell>
        <mxCell id="IP0mqPOCSbXhTDtQ9ogp-141" value="" style="endArrow=none;html=1;rounded=0;entryX=0.5;entryY=0;entryDx=0;entryDy=0;exitX=0.5;exitY=1;exitDx=0;exitDy=0;" parent="1" source="IP0mqPOCSbXhTDtQ9ogp-135" target="o08p62BVp6ES0wWiFjN2-9" edge="1">
          <mxGeometry relative="1" as="geometry">
            <mxPoint x="1120" y="443" as="sourcePoint" />
            <mxPoint x="910" y="443" as="targetPoint" />
          </mxGeometry>
        </mxCell>
        <mxCell id="IP0mqPOCSbXhTDtQ9ogp-142" value="" style="endArrow=none;html=1;rounded=0;entryX=0.5;entryY=0;entryDx=0;entryDy=0;exitX=0.5;exitY=1;exitDx=0;exitDy=0;" parent="1" source="IP0mqPOCSbXhTDtQ9ogp-134" target="o08p62BVp6ES0wWiFjN2-9" edge="1">
          <mxGeometry relative="1" as="geometry">
            <mxPoint x="1180" y="280" as="sourcePoint" />
            <mxPoint x="1170" y="423" as="targetPoint" />
          </mxGeometry>
        </mxCell>
        <mxCell id="IP0mqPOCSbXhTDtQ9ogp-143" value="" style="endArrow=none;html=1;rounded=0;entryX=0.75;entryY=0;entryDx=0;entryDy=0;exitX=0.5;exitY=1;exitDx=0;exitDy=0;" parent="1" source="IP0mqPOCSbXhTDtQ9ogp-136" target="o08p62BVp6ES0wWiFjN2-9" edge="1">
          <mxGeometry relative="1" as="geometry">
            <mxPoint x="1190" y="290" as="sourcePoint" />
            <mxPoint x="1180" y="433" as="targetPoint" />
          </mxGeometry>
        </mxCell>
        <mxCell id="IP0mqPOCSbXhTDtQ9ogp-144" value="" style="endArrow=none;html=1;rounded=0;entryX=0.25;entryY=0;entryDx=0;entryDy=0;exitX=0.5;exitY=1;exitDx=0;exitDy=0;" parent="1" source="IP0mqPOCSbXhTDtQ9ogp-140" target="o08p62BVp6ES0wWiFjN2-9" edge="1">
          <mxGeometry relative="1" as="geometry">
            <mxPoint x="1200" y="300" as="sourcePoint" />
            <mxPoint x="1190" y="443" as="targetPoint" />
          </mxGeometry>
        </mxCell>
        <mxCell id="IP0mqPOCSbXhTDtQ9ogp-145" value="" style="endArrow=none;html=1;rounded=0;entryX=1;entryY=0.5;entryDx=0;entryDy=0;exitX=0;exitY=0.5;exitDx=0;exitDy=0;" parent="1" source="IP0mqPOCSbXhTDtQ9ogp-137" target="o08p62BVp6ES0wWiFjN2-9" edge="1">
          <mxGeometry relative="1" as="geometry">
            <mxPoint x="1210" y="310" as="sourcePoint" />
            <mxPoint x="1200" y="453" as="targetPoint" />
          </mxGeometry>
        </mxCell>
        <mxCell id="IP0mqPOCSbXhTDtQ9ogp-146" value="" style="endArrow=none;html=1;rounded=0;entryX=0;entryY=0.5;entryDx=0;entryDy=0;exitX=1;exitY=0.75;exitDx=0;exitDy=0;" parent="1" source="o08p62BVp6ES0wWiFjN2-9" target="IP0mqPOCSbXhTDtQ9ogp-139" edge="1">
          <mxGeometry relative="1" as="geometry">
            <mxPoint x="1220" y="320" as="sourcePoint" />
            <mxPoint x="1210" y="463" as="targetPoint" />
          </mxGeometry>
        </mxCell>
        <mxCell id="IP0mqPOCSbXhTDtQ9ogp-147" value="" style="endArrow=none;html=1;rounded=0;entryX=0.097;entryY=-0.019;entryDx=0;entryDy=0;exitX=1;exitY=0.5;exitDx=0;exitDy=0;entryPerimeter=0;" parent="1" source="IP0mqPOCSbXhTDtQ9ogp-138" target="o08p62BVp6ES0wWiFjN2-9" edge="1">
          <mxGeometry relative="1" as="geometry">
            <mxPoint x="1230" y="330" as="sourcePoint" />
            <mxPoint x="1220" y="473" as="targetPoint" />
          </mxGeometry>
        </mxCell>
        <mxCell id="IP0mqPOCSbXhTDtQ9ogp-149" value="Lives in" style="shape=rhombus;perimeter=rhombusPerimeter;whiteSpace=wrap;html=1;align=center;" parent="1" vertex="1">
          <mxGeometry x="445" y="488" width="80" height="62" as="geometry" />
        </mxCell>
        <mxCell id="IP0mqPOCSbXhTDtQ9ogp-150" value="" style="endArrow=none;html=1;rounded=0;entryX=0;entryY=0.5;entryDx=0;entryDy=0;exitX=0.5;exitY=1;exitDx=0;exitDy=0;edgeStyle=orthogonalEdgeStyle;" parent="1" source="o08p62BVp6ES0wWiFjN2-1" target="IP0mqPOCSbXhTDtQ9ogp-149" edge="1">
          <mxGeometry relative="1" as="geometry">
            <mxPoint x="380" y="235" as="sourcePoint" />
            <mxPoint x="760" y="230" as="targetPoint" />
          </mxGeometry>
        </mxCell>
        <mxCell id="IP0mqPOCSbXhTDtQ9ogp-241" value="1" style="edgeLabel;html=1;align=center;verticalAlign=middle;resizable=0;points=[];" parent="IP0mqPOCSbXhTDtQ9ogp-150" vertex="1" connectable="0">
          <mxGeometry x="-0.8604" y="-2" relative="1" as="geometry">
            <mxPoint as="offset" />
          </mxGeometry>
        </mxCell>
        <mxCell id="IP0mqPOCSbXhTDtQ9ogp-151" value="" style="endArrow=none;html=1;rounded=0;entryX=0.5;entryY=0;entryDx=0;entryDy=0;exitX=1;exitY=0.5;exitDx=0;exitDy=0;edgeStyle=orthogonalEdgeStyle;" parent="1" source="IP0mqPOCSbXhTDtQ9ogp-149" target="o08p62BVp6ES0wWiFjN2-53" edge="1">
          <mxGeometry relative="1" as="geometry">
            <mxPoint x="1180" y="280" as="sourcePoint" />
            <mxPoint x="1170" y="423" as="targetPoint" />
          </mxGeometry>
        </mxCell>
        <mxCell id="IP0mqPOCSbXhTDtQ9ogp-240" value="1" style="edgeLabel;html=1;align=center;verticalAlign=middle;resizable=0;points=[];" parent="IP0mqPOCSbXhTDtQ9ogp-151" vertex="1" connectable="0">
          <mxGeometry x="0.8588" relative="1" as="geometry">
            <mxPoint as="offset" />
          </mxGeometry>
        </mxCell>
        <mxCell id="IP0mqPOCSbXhTDtQ9ogp-154" value="" style="endArrow=none;html=1;rounded=0;exitX=0.5;exitY=1;exitDx=0;exitDy=0;entryX=1;entryY=0.5;entryDx=0;entryDy=0;edgeStyle=orthogonalEdgeStyle;" parent="1" source="o08p62BVp6ES0wWiFjN2-9" target="IP0mqPOCSbXhTDtQ9ogp-152" edge="1">
          <mxGeometry relative="1" as="geometry">
            <mxPoint x="1160" y="453" as="sourcePoint" />
            <mxPoint x="725" y="645" as="targetPoint" />
          </mxGeometry>
        </mxCell>
        <mxCell id="IP0mqPOCSbXhTDtQ9ogp-239" value="1" style="edgeLabel;html=1;align=center;verticalAlign=middle;resizable=0;points=[];" parent="IP0mqPOCSbXhTDtQ9ogp-154" vertex="1" connectable="0">
          <mxGeometry x="-0.8495" y="1" relative="1" as="geometry">
            <mxPoint as="offset" />
          </mxGeometry>
        </mxCell>
        <mxCell id="IP0mqPOCSbXhTDtQ9ogp-152" value="Associated&lt;br&gt;with" style="shape=rhombus;perimeter=rhombusPerimeter;whiteSpace=wrap;html=1;align=center;" parent="1" vertex="1">
          <mxGeometry x="910" y="488" width="90" height="62" as="geometry" />
        </mxCell>
        <mxCell id="IP0mqPOCSbXhTDtQ9ogp-156" value="&lt;u&gt;PlaceNumber&lt;/u&gt;" style="ellipse;whiteSpace=wrap;html=1;align=center;" parent="1" vertex="1">
          <mxGeometry x="790" y="585" width="100" height="40" as="geometry" />
        </mxCell>
        <mxCell id="IP0mqPOCSbXhTDtQ9ogp-158" value="RoomNumber" style="ellipse;whiteSpace=wrap;html=1;align=center;" parent="1" vertex="1">
          <mxGeometry x="535" y="580" width="100" height="40" as="geometry" />
        </mxCell>
        <mxCell id="IP0mqPOCSbXhTDtQ9ogp-159" value="MonthlyRent" style="ellipse;whiteSpace=wrap;html=1;align=center;" parent="1" vertex="1">
          <mxGeometry x="520" y="685" width="100" height="40" as="geometry" />
        </mxCell>
        <mxCell id="IP0mqPOCSbXhTDtQ9ogp-160" value="Type" style="ellipse;whiteSpace=wrap;html=1;align=center;" parent="1" vertex="1">
          <mxGeometry x="810" y="685" width="100" height="40" as="geometry" />
        </mxCell>
        <mxCell id="IP0mqPOCSbXhTDtQ9ogp-161" value="" style="endArrow=none;html=1;rounded=0;exitX=0;exitY=0.5;exitDx=0;exitDy=0;entryX=1;entryY=0.25;entryDx=0;entryDy=0;" parent="1" source="IP0mqPOCSbXhTDtQ9ogp-156" target="o08p62BVp6ES0wWiFjN2-53" edge="1">
          <mxGeometry relative="1" as="geometry">
            <mxPoint x="735" y="695" as="sourcePoint" />
            <mxPoint x="790" y="640" as="targetPoint" />
          </mxGeometry>
        </mxCell>
        <mxCell id="IP0mqPOCSbXhTDtQ9ogp-162" value="" style="endArrow=none;html=1;rounded=0;exitX=1;exitY=0.5;exitDx=0;exitDy=0;entryX=0;entryY=0.5;entryDx=0;entryDy=0;" parent="1" source="o08p62BVp6ES0wWiFjN2-53" target="IP0mqPOCSbXhTDtQ9ogp-160" edge="1">
          <mxGeometry relative="1" as="geometry">
            <mxPoint x="745" y="705" as="sourcePoint" />
            <mxPoint x="960" y="790" as="targetPoint" />
          </mxGeometry>
        </mxCell>
        <mxCell id="IP0mqPOCSbXhTDtQ9ogp-163" value="" style="endArrow=none;html=1;rounded=0;exitX=0.777;exitY=0.954;exitDx=0;exitDy=0;entryX=0;entryY=0.25;entryDx=0;entryDy=0;exitPerimeter=0;" parent="1" source="IP0mqPOCSbXhTDtQ9ogp-158" target="o08p62BVp6ES0wWiFjN2-53" edge="1">
          <mxGeometry relative="1" as="geometry">
            <mxPoint x="755" y="715" as="sourcePoint" />
            <mxPoint x="970" y="800" as="targetPoint" />
          </mxGeometry>
        </mxCell>
        <mxCell id="IP0mqPOCSbXhTDtQ9ogp-164" value="" style="endArrow=none;html=1;rounded=0;exitX=0.78;exitY=0.129;exitDx=0;exitDy=0;entryX=0;entryY=0.5;entryDx=0;entryDy=0;exitPerimeter=0;" parent="1" source="IP0mqPOCSbXhTDtQ9ogp-159" target="o08p62BVp6ES0wWiFjN2-53" edge="1">
          <mxGeometry relative="1" as="geometry">
            <mxPoint x="765" y="725" as="sourcePoint" />
            <mxPoint x="980" y="810" as="targetPoint" />
          </mxGeometry>
        </mxCell>
        <mxCell id="IP0mqPOCSbXhTDtQ9ogp-167" value="" style="endArrow=none;html=1;rounded=0;entryX=0;entryY=0.5;entryDx=0;entryDy=0;exitX=1;exitY=0.5;exitDx=0;exitDy=0;edgeStyle=orthogonalEdgeStyle;" parent="1" source="o08p62BVp6ES0wWiFjN2-49" target="IP0mqPOCSbXhTDtQ9ogp-166" edge="1">
          <mxGeometry relative="1" as="geometry">
            <mxPoint x="520" y="880" as="sourcePoint" />
            <mxPoint x="675" y="685" as="targetPoint" />
          </mxGeometry>
        </mxCell>
        <mxCell id="IP0mqPOCSbXhTDtQ9ogp-242" value="1" style="edgeLabel;html=1;align=center;verticalAlign=middle;resizable=0;points=[];" parent="IP0mqPOCSbXhTDtQ9ogp-167" vertex="1" connectable="0">
          <mxGeometry x="-0.7041" y="1" relative="1" as="geometry">
            <mxPoint as="offset" />
          </mxGeometry>
        </mxCell>
        <mxCell id="IP0mqPOCSbXhTDtQ9ogp-166" value="Manages" style="shape=rhombus;perimeter=rhombusPerimeter;whiteSpace=wrap;html=1;align=center;" parent="1" vertex="1">
          <mxGeometry x="555" y="752" width="80" height="62" as="geometry" />
        </mxCell>
        <mxCell id="IP0mqPOCSbXhTDtQ9ogp-168" value="&lt;u&gt;StaffNumber&lt;/u&gt;" style="ellipse;whiteSpace=wrap;html=1;align=center;" parent="1" vertex="1">
          <mxGeometry x="395" y="810" width="100" height="40" as="geometry" />
        </mxCell>
        <mxCell id="IP0mqPOCSbXhTDtQ9ogp-169" value="Em&lt;span style=&quot;color: rgba(0, 0, 0, 0); font-family: monospace; font-size: 0px; text-align: start; text-wrap: nowrap;&quot;&gt;%3CmxGraphModel%3E%3Croot%3E%3CmxCell%20id%3D%220%22%2F%3E%3CmxCell%20id%3D%221%22%20parent%3D%220%22%2F%3E%3CmxCell%20id%3D%222%22%20value%3D%22Name%22%20style%3D%22ellipse%3BwhiteSpace%3Dwrap%3Bhtml%3D1%3Balign%3Dcenter%3B%22%20vertex%3D%221%22%20parent%3D%221%22%3E%3CmxGeometry%20x%3D%22255%22%20y%3D%22842%22%20width%3D%22100%22%20height%3D%2240%22%20as%3D%22geometry%22%2F%3E%3C%2FmxCell%3E%3C%2Froot%3E%3C%2FmxGraphModel%3E&lt;/span&gt;ail" style="ellipse;whiteSpace=wrap;html=1;align=center;" parent="1" vertex="1">
          <mxGeometry x="520" y="922" width="100" height="40" as="geometry" />
        </mxCell>
        <mxCell id="IP0mqPOCSbXhTDtQ9ogp-170" value="Name" style="ellipse;whiteSpace=wrap;html=1;align=center;" parent="1" vertex="1">
          <mxGeometry x="290" y="835" width="65" height="40" as="geometry" />
        </mxCell>
        <mxCell id="IP0mqPOCSbXhTDtQ9ogp-171" value="Address" style="ellipse;whiteSpace=wrap;html=1;align=center;" parent="1" vertex="1">
          <mxGeometry x="270" y="940" width="100" height="40" as="geometry" />
        </mxCell>
        <mxCell id="IP0mqPOCSbXhTDtQ9ogp-172" value="DateOfBirth" style="ellipse;whiteSpace=wrap;html=1;align=center;" parent="1" vertex="1">
          <mxGeometry x="480" y="970" width="100" height="40" as="geometry" />
        </mxCell>
        <mxCell id="IP0mqPOCSbXhTDtQ9ogp-173" value="Gender" style="ellipse;whiteSpace=wrap;html=1;align=center;" parent="1" vertex="1">
          <mxGeometry x="235" y="882" width="100" height="40" as="geometry" />
        </mxCell>
        <mxCell id="IP0mqPOCSbXhTDtQ9ogp-175" value="Position" style="ellipse;whiteSpace=wrap;html=1;align=center;" parent="1" vertex="1">
          <mxGeometry x="410" y="1010" width="100" height="40" as="geometry" />
        </mxCell>
        <mxCell id="IP0mqPOCSbXhTDtQ9ogp-176" value="Location" style="ellipse;whiteSpace=wrap;html=1;align=center;" parent="1" vertex="1">
          <mxGeometry x="335" y="980" width="100" height="40" as="geometry" />
        </mxCell>
        <mxCell id="IP0mqPOCSbXhTDtQ9ogp-177" value="FirstName" style="ellipse;whiteSpace=wrap;html=1;align=center;" parent="1" vertex="1">
          <mxGeometry x="245" y="750" width="100" height="40" as="geometry" />
        </mxCell>
        <mxCell id="IP0mqPOCSbXhTDtQ9ogp-178" value="LastName" style="ellipse;whiteSpace=wrap;html=1;align=center;" parent="1" vertex="1">
          <mxGeometry x="150" y="805" width="100" height="40" as="geometry" />
        </mxCell>
        <mxCell id="IP0mqPOCSbXhTDtQ9ogp-179" value="" style="endArrow=none;html=1;rounded=0;exitX=0.5;exitY=0;exitDx=0;exitDy=0;entryX=0.5;entryY=1;entryDx=0;entryDy=0;" parent="1" source="o08p62BVp6ES0wWiFjN2-49" target="IP0mqPOCSbXhTDtQ9ogp-168" edge="1">
          <mxGeometry relative="1" as="geometry">
            <mxPoint x="40" y="990" as="sourcePoint" />
            <mxPoint x="138" y="1020" as="targetPoint" />
          </mxGeometry>
        </mxCell>
        <mxCell id="IP0mqPOCSbXhTDtQ9ogp-180" value="" style="endArrow=none;html=1;rounded=0;exitX=0.25;exitY=0;exitDx=0;exitDy=0;entryX=1;entryY=0.5;entryDx=0;entryDy=0;" parent="1" source="o08p62BVp6ES0wWiFjN2-49" target="IP0mqPOCSbXhTDtQ9ogp-170" edge="1">
          <mxGeometry relative="1" as="geometry">
            <mxPoint x="50" y="1000" as="sourcePoint" />
            <mxPoint x="148" y="1030" as="targetPoint" />
          </mxGeometry>
        </mxCell>
        <mxCell id="IP0mqPOCSbXhTDtQ9ogp-181" value="" style="endArrow=none;html=1;rounded=0;exitX=0;exitY=0.5;exitDx=0;exitDy=0;entryX=1;entryY=0.5;entryDx=0;entryDy=0;" parent="1" source="o08p62BVp6ES0wWiFjN2-49" target="IP0mqPOCSbXhTDtQ9ogp-173" edge="1">
          <mxGeometry relative="1" as="geometry">
            <mxPoint x="435" y="880" as="sourcePoint" />
            <mxPoint x="380" y="830" as="targetPoint" />
          </mxGeometry>
        </mxCell>
        <mxCell id="IP0mqPOCSbXhTDtQ9ogp-182" value="" style="endArrow=none;html=1;rounded=0;exitX=0;exitY=0.75;exitDx=0;exitDy=0;entryX=0.5;entryY=0;entryDx=0;entryDy=0;" parent="1" source="o08p62BVp6ES0wWiFjN2-49" target="IP0mqPOCSbXhTDtQ9ogp-171" edge="1">
          <mxGeometry relative="1" as="geometry">
            <mxPoint x="445" y="890" as="sourcePoint" />
            <mxPoint x="390" y="840" as="targetPoint" />
          </mxGeometry>
        </mxCell>
        <mxCell id="IP0mqPOCSbXhTDtQ9ogp-183" value="" style="endArrow=none;html=1;rounded=0;exitX=0.5;exitY=1;exitDx=0;exitDy=0;entryX=0.5;entryY=0;entryDx=0;entryDy=0;" parent="1" source="o08p62BVp6ES0wWiFjN2-49" target="IP0mqPOCSbXhTDtQ9ogp-175" edge="1">
          <mxGeometry relative="1" as="geometry">
            <mxPoint x="455" y="900" as="sourcePoint" />
            <mxPoint x="400" y="850" as="targetPoint" />
          </mxGeometry>
        </mxCell>
        <mxCell id="IP0mqPOCSbXhTDtQ9ogp-184" value="" style="endArrow=none;html=1;rounded=0;exitX=0.5;exitY=1;exitDx=0;exitDy=0;entryX=0.5;entryY=0;entryDx=0;entryDy=0;" parent="1" source="o08p62BVp6ES0wWiFjN2-49" target="IP0mqPOCSbXhTDtQ9ogp-172" edge="1">
          <mxGeometry relative="1" as="geometry">
            <mxPoint x="465" y="910" as="sourcePoint" />
            <mxPoint x="410" y="860" as="targetPoint" />
          </mxGeometry>
        </mxCell>
        <mxCell id="IP0mqPOCSbXhTDtQ9ogp-185" value="" style="endArrow=none;html=1;rounded=0;exitX=0.088;exitY=0.19;exitDx=0;exitDy=0;exitPerimeter=0;" parent="1" source="IP0mqPOCSbXhTDtQ9ogp-169" edge="1">
          <mxGeometry relative="1" as="geometry">
            <mxPoint x="475" y="920" as="sourcePoint" />
            <mxPoint x="450" y="910" as="targetPoint" />
          </mxGeometry>
        </mxCell>
        <mxCell id="IP0mqPOCSbXhTDtQ9ogp-186" value="" style="endArrow=none;html=1;rounded=0;exitX=0.5;exitY=0;exitDx=0;exitDy=0;" parent="1" source="IP0mqPOCSbXhTDtQ9ogp-176" edge="1">
          <mxGeometry relative="1" as="geometry">
            <mxPoint x="485" y="930" as="sourcePoint" />
            <mxPoint x="450" y="910" as="targetPoint" />
          </mxGeometry>
        </mxCell>
        <mxCell id="IP0mqPOCSbXhTDtQ9ogp-188" value="" style="endArrow=none;html=1;rounded=0;exitX=0.5;exitY=0;exitDx=0;exitDy=0;entryX=0.5;entryY=1;entryDx=0;entryDy=0;" parent="1" source="IP0mqPOCSbXhTDtQ9ogp-170" target="IP0mqPOCSbXhTDtQ9ogp-177" edge="1">
          <mxGeometry relative="1" as="geometry">
            <mxPoint x="435" y="880" as="sourcePoint" />
            <mxPoint x="380" y="830" as="targetPoint" />
          </mxGeometry>
        </mxCell>
        <mxCell id="IP0mqPOCSbXhTDtQ9ogp-189" value="" style="endArrow=none;html=1;rounded=0;exitX=0;exitY=0.5;exitDx=0;exitDy=0;entryX=1;entryY=0.5;entryDx=0;entryDy=0;" parent="1" source="IP0mqPOCSbXhTDtQ9ogp-170" target="IP0mqPOCSbXhTDtQ9ogp-178" edge="1">
          <mxGeometry relative="1" as="geometry">
            <mxPoint x="445" y="890" as="sourcePoint" />
            <mxPoint x="390" y="840" as="targetPoint" />
          </mxGeometry>
        </mxCell>
        <mxCell id="IP0mqPOCSbXhTDtQ9ogp-190" value="Is Inspected" style="shape=rhombus;perimeter=rhombusPerimeter;whiteSpace=wrap;html=1;align=center;" parent="1" vertex="1">
          <mxGeometry x="992.5" y="969" width="80" height="62" as="geometry" />
        </mxCell>
        <mxCell id="IP0mqPOCSbXhTDtQ9ogp-194" value="NumberOfRooms" style="ellipse;whiteSpace=wrap;html=1;align=center;" parent="1" vertex="1">
          <mxGeometry x="1120" y="975" width="115" height="40" as="geometry" />
        </mxCell>
        <mxCell id="IP0mqPOCSbXhTDtQ9ogp-195" value="Address" style="ellipse;whiteSpace=wrap;html=1;align=center;" parent="1" vertex="1">
          <mxGeometry x="1127.5" y="897" width="100" height="40" as="geometry" />
        </mxCell>
        <mxCell id="IP0mqPOCSbXhTDtQ9ogp-196" value="&lt;u&gt;ApartmentNumber&lt;/u&gt;" style="ellipse;whiteSpace=wrap;html=1;align=center;" parent="1" vertex="1">
          <mxGeometry x="1127.5" y="835" width="110" height="40" as="geometry" />
        </mxCell>
        <mxCell id="IP0mqPOCSbXhTDtQ9ogp-197" value="" style="endArrow=none;html=1;rounded=0;entryX=0.5;entryY=1;entryDx=0;entryDy=0;exitX=0.994;exitY=0.362;exitDx=0;exitDy=0;exitPerimeter=0;" parent="1" source="o08p62BVp6ES0wWiFjN2-50" target="IP0mqPOCSbXhTDtQ9ogp-196" edge="1">
          <mxGeometry relative="1" as="geometry">
            <mxPoint x="1087.5" y="920" as="sourcePoint" />
            <mxPoint x="657.5" y="694" as="targetPoint" />
          </mxGeometry>
        </mxCell>
        <mxCell id="IP0mqPOCSbXhTDtQ9ogp-198" value="" style="endArrow=none;html=1;rounded=0;exitX=1;exitY=0.5;exitDx=0;exitDy=0;entryX=0.025;entryY=0.674;entryDx=0;entryDy=0;entryPerimeter=0;" parent="1" source="o08p62BVp6ES0wWiFjN2-50" target="IP0mqPOCSbXhTDtQ9ogp-195" edge="1">
          <mxGeometry relative="1" as="geometry">
            <mxPoint x="777.5" y="774" as="sourcePoint" />
            <mxPoint x="1130" y="920" as="targetPoint" />
          </mxGeometry>
        </mxCell>
        <mxCell id="IP0mqPOCSbXhTDtQ9ogp-199" value="" style="endArrow=none;html=1;rounded=0;exitX=1;exitY=0.75;exitDx=0;exitDy=0;entryX=0.5;entryY=0;entryDx=0;entryDy=0;" parent="1" source="o08p62BVp6ES0wWiFjN2-50" target="IP0mqPOCSbXhTDtQ9ogp-194" edge="1">
          <mxGeometry relative="1" as="geometry">
            <mxPoint x="787.5" y="784" as="sourcePoint" />
            <mxPoint x="677.5" y="714" as="targetPoint" />
          </mxGeometry>
        </mxCell>
        <mxCell id="IP0mqPOCSbXhTDtQ9ogp-200" value="Name" style="ellipse;whiteSpace=wrap;html=1;align=center;" parent="1" vertex="1">
          <mxGeometry x="750" y="1100" width="100" height="40" as="geometry" />
        </mxCell>
        <mxCell id="IP0mqPOCSbXhTDtQ9ogp-203" value="ApartmentNumber" style="ellipse;whiteSpace=wrap;html=1;align=center;" parent="1" vertex="1">
          <mxGeometry x="920" y="1060" width="110" height="40" as="geometry" />
        </mxCell>
        <mxCell id="IP0mqPOCSbXhTDtQ9ogp-204" value="InspectionDate" style="ellipse;whiteSpace=wrap;html=1;align=center;" parent="1" vertex="1">
          <mxGeometry x="690" y="952" width="100" height="40" as="geometry" />
        </mxCell>
        <mxCell id="IP0mqPOCSbXhTDtQ9ogp-205" value="Satisfactory" style="ellipse;whiteSpace=wrap;html=1;align=center;" parent="1" vertex="1">
          <mxGeometry x="680" y="1031" width="100" height="40" as="geometry" />
        </mxCell>
        <mxCell id="IP0mqPOCSbXhTDtQ9ogp-206" value="Comments" style="ellipse;whiteSpace=wrap;html=1;align=center;" parent="1" vertex="1">
          <mxGeometry x="860" y="1110" width="100" height="40" as="geometry" />
        </mxCell>
        <mxCell id="IP0mqPOCSbXhTDtQ9ogp-208" value="FirstName" style="ellipse;whiteSpace=wrap;html=1;align=center;" parent="1" vertex="1">
          <mxGeometry x="780" y="1160" width="100" height="40" as="geometry" />
        </mxCell>
        <mxCell id="IP0mqPOCSbXhTDtQ9ogp-209" value="LastName" style="ellipse;whiteSpace=wrap;html=1;align=center;" parent="1" vertex="1">
          <mxGeometry x="670" y="1150" width="100" height="40" as="geometry" />
        </mxCell>
        <mxCell id="IP0mqPOCSbXhTDtQ9ogp-210" value="" style="endArrow=none;html=1;rounded=0;entryX=0.5;entryY=0;entryDx=0;entryDy=0;exitX=0.5;exitY=1;exitDx=0;exitDy=0;" parent="1" source="IP0mqPOCSbXhTDtQ9ogp-200" target="IP0mqPOCSbXhTDtQ9ogp-208" edge="1">
          <mxGeometry relative="1" as="geometry">
            <mxPoint x="715" y="1124" as="sourcePoint" />
            <mxPoint x="677.5" y="1185" as="targetPoint" />
          </mxGeometry>
        </mxCell>
        <mxCell id="IP0mqPOCSbXhTDtQ9ogp-211" value="" style="endArrow=none;html=1;rounded=0;exitX=0;exitY=1;exitDx=0;exitDy=0;entryX=0.5;entryY=0;entryDx=0;entryDy=0;" parent="1" source="IP0mqPOCSbXhTDtQ9ogp-200" target="IP0mqPOCSbXhTDtQ9ogp-209" edge="1">
          <mxGeometry relative="1" as="geometry">
            <mxPoint x="602.5" y="1175" as="sourcePoint" />
            <mxPoint x="687.5" y="1195" as="targetPoint" />
          </mxGeometry>
        </mxCell>
        <mxCell id="IP0mqPOCSbXhTDtQ9ogp-213" value="" style="endArrow=none;html=1;rounded=0;entryX=0.5;entryY=1;entryDx=0;entryDy=0;exitX=0.5;exitY=0;exitDx=0;exitDy=0;" parent="1" source="IP0mqPOCSbXhTDtQ9ogp-206" target="o08p62BVp6ES0wWiFjN2-52" edge="1">
          <mxGeometry relative="1" as="geometry">
            <mxPoint x="745" y="1162" as="sourcePoint" />
            <mxPoint x="825" y="1262" as="targetPoint" />
          </mxGeometry>
        </mxCell>
        <mxCell id="IP0mqPOCSbXhTDtQ9ogp-214" value="" style="endArrow=none;html=1;rounded=0;entryX=1;entryY=0.5;entryDx=0;entryDy=0;exitX=0;exitY=0.25;exitDx=0;exitDy=0;" parent="1" source="o08p62BVp6ES0wWiFjN2-52" target="IP0mqPOCSbXhTDtQ9ogp-204" edge="1">
          <mxGeometry relative="1" as="geometry">
            <mxPoint x="755" y="1172" as="sourcePoint" />
            <mxPoint x="835" y="1272" as="targetPoint" />
          </mxGeometry>
        </mxCell>
        <mxCell id="IP0mqPOCSbXhTDtQ9ogp-215" value="" style="endArrow=none;html=1;rounded=0;entryX=1;entryY=0.5;entryDx=0;entryDy=0;exitX=0;exitY=0.75;exitDx=0;exitDy=0;" parent="1" source="o08p62BVp6ES0wWiFjN2-52" target="IP0mqPOCSbXhTDtQ9ogp-205" edge="1">
          <mxGeometry relative="1" as="geometry">
            <mxPoint x="765" y="1182" as="sourcePoint" />
            <mxPoint x="845" y="1282" as="targetPoint" />
          </mxGeometry>
        </mxCell>
        <mxCell id="IP0mqPOCSbXhTDtQ9ogp-216" value="" style="endArrow=none;html=1;rounded=0;exitX=0.75;exitY=1;exitDx=0;exitDy=0;entryX=0;entryY=0;entryDx=0;entryDy=0;" parent="1" source="o08p62BVp6ES0wWiFjN2-52" target="IP0mqPOCSbXhTDtQ9ogp-203" edge="1">
          <mxGeometry relative="1" as="geometry">
            <mxPoint x="775" y="1192" as="sourcePoint" />
            <mxPoint x="920" y="1060" as="targetPoint" />
          </mxGeometry>
        </mxCell>
        <mxCell id="IP0mqPOCSbXhTDtQ9ogp-217" value="" style="endArrow=none;html=1;rounded=0;entryX=0.5;entryY=0;entryDx=0;entryDy=0;exitX=0.25;exitY=1;exitDx=0;exitDy=0;" parent="1" source="o08p62BVp6ES0wWiFjN2-52" target="IP0mqPOCSbXhTDtQ9ogp-200" edge="1">
          <mxGeometry relative="1" as="geometry">
            <mxPoint x="785" y="1202" as="sourcePoint" />
            <mxPoint x="865" y="1302" as="targetPoint" />
          </mxGeometry>
        </mxCell>
        <mxCell id="IP0mqPOCSbXhTDtQ9ogp-218" value="&lt;u&gt;HallName&lt;/u&gt;" style="ellipse;whiteSpace=wrap;html=1;align=center;" parent="1" vertex="1">
          <mxGeometry x="1270" y="605" width="100" height="40" as="geometry" />
        </mxCell>
        <mxCell id="IP0mqPOCSbXhTDtQ9ogp-219" value="Address" style="ellipse;whiteSpace=wrap;html=1;align=center;" parent="1" vertex="1">
          <mxGeometry x="1280" y="805" width="100" height="40" as="geometry" />
        </mxCell>
        <mxCell id="IP0mqPOCSbXhTDtQ9ogp-220" value="MobilePhoneNumber" style="ellipse;whiteSpace=wrap;html=1;align=center;" parent="1" vertex="1">
          <mxGeometry x="1280" y="695" width="125" height="40" as="geometry" />
        </mxCell>
        <mxCell id="IP0mqPOCSbXhTDtQ9ogp-222" value="" style="endArrow=none;html=1;rounded=0;entryX=0;entryY=0.5;entryDx=0;entryDy=0;exitX=1.005;exitY=0.398;exitDx=0;exitDy=0;exitPerimeter=0;" parent="1" source="o08p62BVp6ES0wWiFjN2-51" target="IP0mqPOCSbXhTDtQ9ogp-220" edge="1">
          <mxGeometry relative="1" as="geometry">
            <mxPoint x="950" y="1005" as="sourcePoint" />
            <mxPoint x="1010" y="1045" as="targetPoint" />
          </mxGeometry>
        </mxCell>
        <mxCell id="IP0mqPOCSbXhTDtQ9ogp-223" value="" style="endArrow=none;html=1;rounded=0;entryX=0.5;entryY=0;entryDx=0;entryDy=0;exitX=0.999;exitY=0.615;exitDx=0;exitDy=0;exitPerimeter=0;" parent="1" source="o08p62BVp6ES0wWiFjN2-51" target="IP0mqPOCSbXhTDtQ9ogp-219" edge="1">
          <mxGeometry relative="1" as="geometry">
            <mxPoint x="960" y="1015" as="sourcePoint" />
            <mxPoint x="1020" y="1055" as="targetPoint" />
          </mxGeometry>
        </mxCell>
        <mxCell id="IP0mqPOCSbXhTDtQ9ogp-224" value="" style="endArrow=none;html=1;rounded=0;entryX=0;entryY=0.5;entryDx=0;entryDy=0;exitX=1.001;exitY=0.127;exitDx=0;exitDy=0;exitPerimeter=0;" parent="1" source="o08p62BVp6ES0wWiFjN2-51" target="IP0mqPOCSbXhTDtQ9ogp-218" edge="1">
          <mxGeometry relative="1" as="geometry">
            <mxPoint x="1220" y="695" as="sourcePoint" />
            <mxPoint x="1030" y="1065" as="targetPoint" />
          </mxGeometry>
        </mxCell>
        <mxCell id="RKwnPwqCbtL18GNziKcO-7" value="" style="endArrow=none;html=1;rounded=0;exitX=0.5;exitY=1;exitDx=0;exitDy=0;entryX=0.5;entryY=0;entryDx=0;entryDy=0;" edge="1" parent="1" source="o08p62BVp6ES0wWiFjN2-50" target="IP0mqPOCSbXhTDtQ9ogp-190">
          <mxGeometry relative="1" as="geometry">
            <mxPoint x="1032.5" y="975" as="sourcePoint" />
            <mxPoint x="947.5" y="1012" as="targetPoint" />
          </mxGeometry>
        </mxCell>
        <mxCell id="RKwnPwqCbtL18GNziKcO-9" value="" style="endArrow=none;html=1;rounded=0;entryX=0;entryY=0.5;entryDx=0;entryDy=0;exitX=1;exitY=0.5;exitDx=0;exitDy=0;" edge="1" parent="1" source="o08p62BVp6ES0wWiFjN2-52" target="IP0mqPOCSbXhTDtQ9ogp-190">
          <mxGeometry relative="1" as="geometry">
            <mxPoint x="945" y="945" as="sourcePoint" />
            <mxPoint x="970" y="1005" as="targetPoint" />
          </mxGeometry>
        </mxCell>
      </root>
    </mxGraphModel>
  </diagram>
</mxfile>
